<svg width="242" height="172" viewBox="0 0 242 172" fill="none" xmlns="http://www.w3.org/2000/svg">
<rect x="0.5" y="0.5" width="241" height="171" rx="10.5" fill="white"/>
<rect x="0.5" y="0.5" width="241" height="171" rx="10.5" stroke="#E2E8F0"/>
<path d="M77.3877 20.873L74.4141 29.5H72.6162L76.3623 19.5469H77.5107L77.3877 20.873ZM79.876 29.5L76.8955 20.873L76.7656 19.5469H77.9209L81.6807 29.5H79.876ZM79.7324 25.8086V27.1689H74.3184V25.8086H79.7324ZM84.1553 23.6074V29.5H82.5078V22.1035H84.0596L84.1553 23.6074ZM83.8887 25.5283L83.3281 25.5215C83.3281 25.0111 83.3919 24.5394 83.5195 24.1064C83.6471 23.6735 83.834 23.2975 84.0801 22.9785C84.3262 22.6549 84.6315 22.4066 84.9961 22.2334C85.3652 22.0557 85.7913 21.9668 86.2744 21.9668C86.6117 21.9668 86.9193 22.0169 87.1973 22.1172C87.4798 22.2129 87.7236 22.3656 87.9287 22.5752C88.1383 22.7848 88.2979 23.0537 88.4072 23.3818C88.5212 23.71 88.5781 24.1064 88.5781 24.5713V29.5H86.9307V24.7148C86.9307 24.3548 86.876 24.0723 86.7666 23.8672C86.6618 23.6621 86.5091 23.5163 86.3086 23.4297C86.1126 23.3385 85.8779 23.293 85.6045 23.293C85.2946 23.293 85.0303 23.3522 84.8115 23.4707C84.5973 23.5892 84.4219 23.751 84.2852 23.9561C84.1484 24.1611 84.0482 24.3981 83.9844 24.667C83.9206 24.9359 83.8887 25.223 83.8887 25.5283ZM88.4756 25.0908L87.7031 25.2617C87.7031 24.8151 87.7646 24.3936 87.8877 23.9971C88.0153 23.596 88.1999 23.2451 88.4414 22.9443C88.6875 22.639 88.9906 22.3997 89.3506 22.2266C89.7106 22.0534 90.123 21.9668 90.5879 21.9668C90.9661 21.9668 91.3034 22.0192 91.5996 22.124C91.9004 22.2243 92.1556 22.3838 92.3652 22.6025C92.5749 22.8213 92.7344 23.1061 92.8438 23.457C92.9531 23.8034 93.0078 24.2227 93.0078 24.7148V29.5H91.3535V24.708C91.3535 24.3343 91.2988 24.0449 91.1895 23.8398C91.0846 23.6348 90.9342 23.4935 90.7383 23.416C90.5423 23.334 90.3076 23.293 90.0342 23.293C89.779 23.293 89.5534 23.3408 89.3574 23.4365C89.166 23.5277 89.0042 23.6576 88.8721 23.8262C88.7399 23.9902 88.6396 24.1794 88.5713 24.3936C88.5075 24.6077 88.4756 24.8402 88.4756 25.0908ZM98.873 28.0166V24.4893C98.873 24.2249 98.8252 23.9971 98.7295 23.8057C98.6338 23.6143 98.488 23.4661 98.292 23.3613C98.1006 23.2565 97.859 23.2041 97.5674 23.2041C97.2985 23.2041 97.0661 23.2497 96.8701 23.3408C96.6742 23.432 96.5215 23.555 96.4121 23.71C96.3027 23.8649 96.248 24.0404 96.248 24.2363H94.6074C94.6074 23.9447 94.6781 23.6621 94.8193 23.3887C94.9606 23.1152 95.1657 22.8714 95.4346 22.6572C95.7035 22.443 96.0247 22.2744 96.3984 22.1514C96.7721 22.0283 97.1914 21.9668 97.6562 21.9668C98.2122 21.9668 98.7044 22.0602 99.1328 22.2471C99.5658 22.4339 99.9053 22.7165 100.151 23.0947C100.402 23.4684 100.527 23.9378 100.527 24.5029V27.791C100.527 28.1283 100.55 28.4313 100.596 28.7002C100.646 28.9645 100.716 29.1947 100.808 29.3906V29.5H99.1191C99.0417 29.3223 98.9801 29.0967 98.9346 28.8232C98.8936 28.5452 98.873 28.2764 98.873 28.0166ZM99.1123 25.002L99.126 26.0205H97.9434C97.638 26.0205 97.3691 26.0501 97.1367 26.1094C96.9043 26.1641 96.7106 26.2461 96.5557 26.3555C96.4007 26.4648 96.2845 26.597 96.207 26.752C96.1296 26.9069 96.0908 27.0824 96.0908 27.2783C96.0908 27.4743 96.1364 27.6543 96.2275 27.8184C96.3187 27.9779 96.4508 28.1032 96.624 28.1943C96.8018 28.2855 97.016 28.3311 97.2666 28.3311C97.6038 28.3311 97.8978 28.2627 98.1484 28.126C98.4036 27.9847 98.6042 27.8138 98.75 27.6133C98.8958 27.4082 98.9733 27.2145 98.9824 27.0322L99.5156 27.7637C99.4609 27.9505 99.3675 28.151 99.2354 28.3652C99.1032 28.5794 98.93 28.7845 98.7158 28.9805C98.5062 29.1719 98.2533 29.3291 97.957 29.4521C97.6654 29.5752 97.3281 29.6367 96.9453 29.6367C96.4622 29.6367 96.0316 29.541 95.6533 29.3496C95.2751 29.1536 94.9788 28.8916 94.7646 28.5635C94.5505 28.2308 94.4434 27.8548 94.4434 27.4355C94.4434 27.0436 94.5163 26.6973 94.6621 26.3965C94.8125 26.0911 95.0312 25.8359 95.3184 25.6309C95.61 25.4258 95.9655 25.2708 96.3848 25.166C96.804 25.0566 97.2826 25.002 97.8203 25.002H99.1123ZM104.014 19V29.5H102.359V19H104.014ZM109.988 28.0166V24.4893C109.988 24.2249 109.94 23.9971 109.845 23.8057C109.749 23.6143 109.603 23.4661 109.407 23.3613C109.216 23.2565 108.974 23.2041 108.683 23.2041C108.414 23.2041 108.181 23.2497 107.985 23.3408C107.789 23.432 107.637 23.555 107.527 23.71C107.418 23.8649 107.363 24.0404 107.363 24.2363H105.723C105.723 23.9447 105.793 23.6621 105.935 23.3887C106.076 23.1152 106.281 22.8714 106.55 22.6572C106.819 22.443 107.14 22.2744 107.514 22.1514C107.887 22.0283 108.307 21.9668 108.771 21.9668C109.327 21.9668 109.82 22.0602 110.248 22.2471C110.681 22.4339 111.021 22.7165 111.267 23.0947C111.517 23.4684 111.643 23.9378 111.643 24.5029V27.791C111.643 28.1283 111.665 28.4313 111.711 28.7002C111.761 28.9645 111.832 29.1947 111.923 29.3906V29.5H110.234C110.157 29.3223 110.095 29.0967 110.05 28.8232C110.009 28.5452 109.988 28.2764 109.988 28.0166ZM110.228 25.002L110.241 26.0205H109.059C108.753 26.0205 108.484 26.0501 108.252 26.1094C108.02 26.1641 107.826 26.2461 107.671 26.3555C107.516 26.4648 107.4 26.597 107.322 26.752C107.245 26.9069 107.206 27.0824 107.206 27.2783C107.206 27.4743 107.252 27.6543 107.343 27.8184C107.434 27.9779 107.566 28.1032 107.739 28.1943C107.917 28.2855 108.131 28.3311 108.382 28.3311C108.719 28.3311 109.013 28.2627 109.264 28.126C109.519 27.9847 109.719 27.8138 109.865 27.6133C110.011 27.4082 110.089 27.2145 110.098 27.0322L110.631 27.7637C110.576 27.9505 110.483 28.151 110.351 28.3652C110.218 28.5794 110.045 28.7845 109.831 28.9805C109.621 29.1719 109.368 29.3291 109.072 29.4521C108.781 29.5752 108.443 29.6367 108.061 29.6367C107.577 29.6367 107.147 29.541 106.769 29.3496C106.39 29.1536 106.094 28.8916 105.88 28.5635C105.666 28.2308 105.559 27.8548 105.559 27.4355C105.559 27.0436 105.632 26.6973 105.777 26.3965C105.928 26.0911 106.146 25.8359 106.434 25.6309C106.725 25.4258 107.081 25.2708 107.5 25.166C107.919 25.0566 108.398 25.002 108.936 25.002H110.228ZM114.999 23.6826V29.5H113.352V22.1035H114.903L114.999 23.6826ZM114.705 25.5283L114.172 25.5215C114.176 24.9974 114.249 24.5166 114.391 24.0791C114.536 23.6416 114.737 23.2656 114.992 22.9512C115.252 22.6367 115.562 22.3952 115.922 22.2266C116.282 22.0534 116.683 21.9668 117.125 21.9668C117.48 21.9668 117.802 22.0169 118.089 22.1172C118.381 22.2129 118.629 22.3701 118.834 22.5889C119.044 22.8076 119.203 23.0924 119.312 23.4434C119.422 23.7897 119.477 24.2158 119.477 24.7217V29.5H117.822V24.7148C117.822 24.3594 117.77 24.0791 117.665 23.874C117.565 23.6644 117.417 23.5163 117.221 23.4297C117.029 23.3385 116.79 23.293 116.503 23.293C116.22 23.293 115.967 23.3522 115.744 23.4707C115.521 23.5892 115.332 23.751 115.177 23.9561C115.026 24.1611 114.91 24.3981 114.828 24.667C114.746 24.9359 114.705 25.223 114.705 25.5283ZM130.045 26.9365C130.045 26.7314 130.013 26.5492 129.949 26.3896C129.89 26.2301 129.783 26.0843 129.628 25.9521C129.473 25.82 129.254 25.6924 128.972 25.5693C128.694 25.4417 128.338 25.3118 127.905 25.1797C127.431 25.0339 126.994 24.8721 126.593 24.6943C126.196 24.512 125.85 24.3024 125.554 24.0654C125.257 23.8239 125.027 23.5482 124.863 23.2383C124.699 22.9238 124.617 22.5615 124.617 22.1514C124.617 21.7458 124.701 21.3766 124.87 21.0439C125.043 20.7113 125.287 20.4242 125.602 20.1826C125.921 19.9365 126.297 19.7474 126.729 19.6152C127.162 19.4785 127.641 19.4102 128.165 19.4102C128.903 19.4102 129.539 19.5469 130.072 19.8203C130.61 20.0938 131.022 20.4606 131.31 20.9209C131.601 21.3812 131.747 21.8893 131.747 22.4453H130.045C130.045 22.1172 129.974 21.8278 129.833 21.5771C129.696 21.3219 129.487 21.1214 129.204 20.9756C128.926 20.8298 128.573 20.7568 128.145 20.7568C127.739 20.7568 127.402 20.8184 127.133 20.9414C126.864 21.0645 126.663 21.2308 126.531 21.4404C126.399 21.6501 126.333 21.887 126.333 22.1514C126.333 22.3382 126.376 22.5091 126.463 22.6641C126.549 22.8145 126.682 22.9557 126.859 23.0879C127.037 23.2155 127.26 23.3363 127.529 23.4502C127.798 23.5641 128.115 23.6735 128.479 23.7783C129.031 23.9424 129.512 24.1247 129.922 24.3252C130.332 24.5212 130.674 24.7445 130.947 24.9951C131.221 25.2458 131.426 25.5306 131.562 25.8496C131.699 26.1641 131.768 26.5218 131.768 26.9229C131.768 27.3421 131.683 27.7204 131.515 28.0576C131.346 28.3903 131.104 28.6751 130.79 28.9121C130.48 29.1445 130.106 29.3245 129.669 29.4521C129.236 29.5752 128.753 29.6367 128.22 29.6367C127.741 29.6367 127.27 29.5729 126.805 29.4453C126.344 29.3177 125.925 29.124 125.547 28.8643C125.169 28.5999 124.868 28.2718 124.645 27.8799C124.421 27.4834 124.31 27.0208 124.31 26.4922H126.025C126.025 26.8158 126.08 27.0915 126.189 27.3193C126.303 27.5472 126.461 27.734 126.661 27.8799C126.862 28.0212 127.094 28.126 127.358 28.1943C127.627 28.2627 127.914 28.2969 128.22 28.2969C128.621 28.2969 128.956 28.2399 129.225 28.126C129.498 28.012 129.703 27.8525 129.84 27.6475C129.977 27.4424 130.045 27.2054 130.045 26.9365ZM136.382 29.6367C135.835 29.6367 135.34 29.5479 134.898 29.3701C134.461 29.1878 134.087 28.9349 133.777 28.6113C133.472 28.2878 133.237 27.9072 133.073 27.4697C132.909 27.0322 132.827 26.5605 132.827 26.0547V25.7812C132.827 25.2025 132.911 24.6784 133.08 24.209C133.249 23.7396 133.483 23.3385 133.784 23.0059C134.085 22.6686 134.44 22.4111 134.851 22.2334C135.261 22.0557 135.705 21.9668 136.184 21.9668C136.712 21.9668 137.175 22.0557 137.571 22.2334C137.968 22.4111 138.296 22.6618 138.556 22.9854C138.82 23.3044 139.016 23.6849 139.144 24.127C139.276 24.569 139.342 25.0566 139.342 25.5898V26.2939H133.627V25.1113H137.715V24.9814C137.706 24.6852 137.646 24.4072 137.537 24.1475C137.432 23.8877 137.271 23.6781 137.052 23.5186C136.833 23.359 136.541 23.2793 136.177 23.2793C135.903 23.2793 135.66 23.3385 135.445 23.457C135.236 23.571 135.06 23.7373 134.919 23.9561C134.778 24.1748 134.668 24.4391 134.591 24.749C134.518 25.0544 134.481 25.3984 134.481 25.7812V26.0547C134.481 26.3783 134.525 26.679 134.611 26.957C134.702 27.2305 134.835 27.4697 135.008 27.6748C135.181 27.8799 135.391 28.0417 135.637 28.1602C135.883 28.2741 136.163 28.3311 136.478 28.3311C136.874 28.3311 137.227 28.2513 137.537 28.0918C137.847 27.9323 138.116 27.7067 138.344 27.415L139.212 28.2559C139.052 28.4883 138.845 28.7116 138.59 28.9258C138.335 29.1354 138.022 29.3063 137.653 29.4385C137.289 29.5706 136.865 29.6367 136.382 29.6367ZM142.391 19V29.5H140.736V19H142.391ZM147.456 29.6367C146.909 29.6367 146.415 29.5479 145.973 29.3701C145.535 29.1878 145.161 28.9349 144.852 28.6113C144.546 28.2878 144.312 27.9072 144.147 27.4697C143.983 27.0322 143.901 26.5605 143.901 26.0547V25.7812C143.901 25.2025 143.986 24.6784 144.154 24.209C144.323 23.7396 144.558 23.3385 144.858 23.0059C145.159 22.6686 145.515 22.4111 145.925 22.2334C146.335 22.0557 146.779 21.9668 147.258 21.9668C147.786 21.9668 148.249 22.0557 148.646 22.2334C149.042 22.4111 149.37 22.6618 149.63 22.9854C149.894 23.3044 150.09 23.6849 150.218 24.127C150.35 24.569 150.416 25.0566 150.416 25.5898V26.2939H144.701V25.1113H148.789V24.9814C148.78 24.6852 148.721 24.4072 148.611 24.1475C148.507 23.8877 148.345 23.6781 148.126 23.5186C147.907 23.359 147.616 23.2793 147.251 23.2793C146.978 23.2793 146.734 23.3385 146.52 23.457C146.31 23.571 146.134 23.7373 145.993 23.9561C145.852 24.1748 145.743 24.4391 145.665 24.749C145.592 25.0544 145.556 25.3984 145.556 25.7812V26.0547C145.556 26.3783 145.599 26.679 145.686 26.957C145.777 27.2305 145.909 27.4697 146.082 27.6748C146.255 27.8799 146.465 28.0417 146.711 28.1602C146.957 28.2741 147.237 28.3311 147.552 28.3311C147.948 28.3311 148.301 28.2513 148.611 28.0918C148.921 27.9323 149.19 27.7067 149.418 27.415L150.286 28.2559C150.127 28.4883 149.919 28.7116 149.664 28.9258C149.409 29.1354 149.097 29.3063 148.728 29.4385C148.363 29.5706 147.939 29.6367 147.456 29.6367ZM155.851 27.4971C155.851 27.333 155.81 27.1849 155.728 27.0527C155.646 26.916 155.488 26.793 155.256 26.6836C155.028 26.5742 154.691 26.474 154.244 26.3828C153.852 26.2962 153.492 26.1937 153.164 26.0752C152.84 25.9521 152.562 25.804 152.33 25.6309C152.098 25.4577 151.918 25.2526 151.79 25.0156C151.662 24.7786 151.599 24.5052 151.599 24.1953C151.599 23.8945 151.665 23.6097 151.797 23.3408C151.929 23.0719 152.118 22.835 152.364 22.6299C152.61 22.4248 152.909 22.263 153.26 22.1445C153.615 22.026 154.012 21.9668 154.449 21.9668C155.069 21.9668 155.6 22.0716 156.042 22.2812C156.489 22.4863 156.83 22.7666 157.067 23.1221C157.304 23.473 157.423 23.8695 157.423 24.3115H155.775C155.775 24.1156 155.725 23.9333 155.625 23.7646C155.529 23.5915 155.383 23.4525 155.188 23.3477C154.992 23.2383 154.745 23.1836 154.449 23.1836C154.167 23.1836 153.932 23.2292 153.745 23.3203C153.563 23.4069 153.426 23.5208 153.335 23.6621C153.248 23.8034 153.205 23.9583 153.205 24.127C153.205 24.25 153.228 24.3617 153.273 24.4619C153.324 24.5576 153.406 24.6465 153.52 24.7285C153.633 24.806 153.788 24.8789 153.984 24.9473C154.185 25.0156 154.436 25.0817 154.736 25.1455C155.301 25.264 155.787 25.4167 156.192 25.6035C156.603 25.7858 156.917 26.0228 157.136 26.3145C157.354 26.6016 157.464 26.9661 157.464 27.4082C157.464 27.7363 157.393 28.0371 157.252 28.3105C157.115 28.5794 156.915 28.8141 156.65 29.0146C156.386 29.2106 156.069 29.3633 155.7 29.4727C155.336 29.582 154.925 29.6367 154.47 29.6367C153.8 29.6367 153.232 29.5182 152.768 29.2812C152.303 29.0397 151.95 28.7321 151.708 28.3584C151.471 27.9801 151.353 27.5882 151.353 27.1826H152.945C152.964 27.488 153.048 27.7318 153.198 27.9141C153.353 28.0918 153.545 28.2217 153.772 28.3037C154.005 28.3812 154.244 28.4199 154.49 28.4199C154.786 28.4199 155.035 28.3812 155.235 28.3037C155.436 28.2217 155.589 28.1123 155.693 27.9756C155.798 27.8343 155.851 27.6748 155.851 27.4971ZM163.076 28.0166V24.4893C163.076 24.2249 163.028 23.9971 162.933 23.8057C162.837 23.6143 162.691 23.4661 162.495 23.3613C162.304 23.2565 162.062 23.2041 161.771 23.2041C161.502 23.2041 161.269 23.2497 161.073 23.3408C160.877 23.432 160.725 23.555 160.615 23.71C160.506 23.8649 160.451 24.0404 160.451 24.2363H158.811C158.811 23.9447 158.881 23.6621 159.022 23.3887C159.164 23.1152 159.369 22.8714 159.638 22.6572C159.907 22.443 160.228 22.2744 160.602 22.1514C160.975 22.0283 161.395 21.9668 161.859 21.9668C162.415 21.9668 162.908 22.0602 163.336 22.2471C163.769 22.4339 164.108 22.7165 164.354 23.0947C164.605 23.4684 164.73 23.9378 164.73 24.5029V27.791C164.73 28.1283 164.753 28.4313 164.799 28.7002C164.849 28.9645 164.92 29.1947 165.011 29.3906V29.5H163.322C163.245 29.3223 163.183 29.0967 163.138 28.8232C163.097 28.5452 163.076 28.2764 163.076 28.0166ZM163.315 25.002L163.329 26.0205H162.146C161.841 26.0205 161.572 26.0501 161.34 26.1094C161.107 26.1641 160.914 26.2461 160.759 26.3555C160.604 26.4648 160.488 26.597 160.41 26.752C160.333 26.9069 160.294 27.0824 160.294 27.2783C160.294 27.4743 160.34 27.6543 160.431 27.8184C160.522 27.9779 160.654 28.1032 160.827 28.1943C161.005 28.2855 161.219 28.3311 161.47 28.3311C161.807 28.3311 162.101 28.2627 162.352 28.126C162.607 27.9847 162.807 27.8138 162.953 27.6133C163.099 27.4082 163.176 27.2145 163.186 27.0322L163.719 27.7637C163.664 27.9505 163.571 28.151 163.438 28.3652C163.306 28.5794 163.133 28.7845 162.919 28.9805C162.709 29.1719 162.456 29.3291 162.16 29.4521C161.868 29.5752 161.531 29.6367 161.148 29.6367C160.665 29.6367 160.235 29.541 159.856 29.3496C159.478 29.1536 159.182 28.8916 158.968 28.5635C158.754 28.2308 158.646 27.8548 158.646 27.4355C158.646 27.0436 158.719 26.6973 158.865 26.3965C159.016 26.0911 159.234 25.8359 159.521 25.6309C159.813 25.4258 160.169 25.2708 160.588 25.166C161.007 25.0566 161.486 25.002 162.023 25.002H163.315ZM168.217 22.1035V29.5H166.562V22.1035H168.217ZM166.453 20.1621C166.453 19.9115 166.535 19.7041 166.699 19.54C166.868 19.3714 167.1 19.2871 167.396 19.2871C167.688 19.2871 167.918 19.3714 168.087 19.54C168.256 19.7041 168.34 19.9115 168.34 20.1621C168.34 20.4082 168.256 20.6133 168.087 20.7773C167.918 20.9414 167.688 21.0234 167.396 21.0234C167.1 21.0234 166.868 20.9414 166.699 20.7773C166.535 20.6133 166.453 20.4082 166.453 20.1621Z" fill="#1E293B"/>
<rect x="15" y="101" width="36" height="36" rx="4" fill="#E2E8F0"/>
<path d="M29.9834 143.992V154H28.7188V145.571L26.1689 146.501V145.359L29.7852 143.992H29.9834ZM40.4287 150.65V151.689H33.2373V150.944L37.6943 144.047H38.7266L37.6191 146.043L34.6729 150.65H40.4287ZM39.041 144.047V154H37.7764V144.047H39.041Z" fill="#1E293B"/>
<rect x="59" y="76" width="36" height="61" rx="4" fill="#E2E8F0"/>
<path d="M73.9834 143.992V154H72.7188V145.571L70.1689 146.501V145.359L73.7852 143.992H73.9834ZM79.3018 149.263L78.29 149.003L78.7891 144.047H83.8955V145.216H79.8623L79.5615 147.923C79.7438 147.818 79.974 147.72 80.252 147.629C80.5345 147.538 80.8581 147.492 81.2227 147.492C81.6829 147.492 82.0954 147.572 82.46 147.731C82.8245 147.886 83.1344 148.11 83.3896 148.401C83.6494 148.693 83.8477 149.044 83.9844 149.454C84.1211 149.864 84.1895 150.322 84.1895 150.828C84.1895 151.307 84.1234 151.746 83.9912 152.147C83.8636 152.549 83.6699 152.899 83.4102 153.2C83.1504 153.496 82.8223 153.727 82.4258 153.891C82.0339 154.055 81.5713 154.137 81.0381 154.137C80.637 154.137 80.2565 154.082 79.8965 153.973C79.541 153.859 79.222 153.688 78.9395 153.46C78.6615 153.228 78.4336 152.94 78.2559 152.599C78.0827 152.252 77.9733 151.847 77.9277 151.382H79.1309C79.1855 151.756 79.2949 152.07 79.459 152.325C79.623 152.58 79.8372 152.774 80.1016 152.906C80.3704 153.034 80.6826 153.098 81.0381 153.098C81.3389 153.098 81.6055 153.045 81.8379 152.94C82.0703 152.836 82.2663 152.685 82.4258 152.489C82.5853 152.293 82.7061 152.056 82.7881 151.778C82.8747 151.5 82.918 151.188 82.918 150.842C82.918 150.527 82.8747 150.236 82.7881 149.967C82.7015 149.698 82.5716 149.463 82.3984 149.263C82.2298 149.062 82.0225 148.907 81.7764 148.798C81.5303 148.684 81.2477 148.627 80.9287 148.627C80.5049 148.627 80.1836 148.684 79.9648 148.798C79.7507 148.912 79.5296 149.067 79.3018 149.263Z" fill="#1E293B"/>
<rect x="103" y="101" width="36" height="36" rx="4" fill="#E2E8F0"/>
<path d="M117.983 143.992V154H116.719V145.571L114.169 146.501V145.359L117.785 143.992H117.983ZM126.556 144.033H126.665V145.106H126.556C125.886 145.106 125.325 145.216 124.874 145.435C124.423 145.649 124.065 145.938 123.801 146.303C123.536 146.663 123.345 147.068 123.227 147.52C123.113 147.971 123.056 148.429 123.056 148.894V150.356C123.056 150.799 123.108 151.19 123.213 151.532C123.318 151.869 123.461 152.154 123.644 152.387C123.826 152.619 124.031 152.795 124.259 152.913C124.491 153.032 124.733 153.091 124.983 153.091C125.275 153.091 125.535 153.036 125.763 152.927C125.991 152.813 126.182 152.656 126.337 152.455C126.496 152.25 126.617 152.008 126.699 151.73C126.781 151.452 126.822 151.147 126.822 150.814C126.822 150.518 126.786 150.233 126.713 149.96C126.64 149.682 126.528 149.436 126.378 149.222C126.228 149.003 126.038 148.832 125.811 148.709C125.587 148.581 125.321 148.518 125.011 148.518C124.66 148.518 124.332 148.604 124.026 148.777C123.726 148.946 123.477 149.169 123.281 149.447C123.09 149.721 122.98 150.019 122.953 150.343L122.283 150.336C122.347 149.826 122.465 149.39 122.639 149.03C122.816 148.666 123.035 148.369 123.295 148.142C123.559 147.909 123.853 147.741 124.177 147.636C124.505 147.526 124.851 147.472 125.216 147.472C125.713 147.472 126.141 147.565 126.501 147.752C126.861 147.939 127.157 148.189 127.39 148.504C127.622 148.814 127.793 149.165 127.902 149.557C128.016 149.944 128.073 150.343 128.073 150.753C128.073 151.222 128.007 151.662 127.875 152.072C127.743 152.482 127.545 152.842 127.28 153.152C127.021 153.462 126.699 153.704 126.316 153.877C125.934 154.05 125.489 154.137 124.983 154.137C124.446 154.137 123.976 154.027 123.575 153.809C123.174 153.585 122.841 153.289 122.577 152.92C122.313 152.551 122.115 152.141 121.982 151.689C121.85 151.238 121.784 150.78 121.784 150.315V149.721C121.784 149.019 121.855 148.331 121.996 147.656C122.137 146.982 122.381 146.371 122.728 145.824C123.078 145.277 123.564 144.842 124.184 144.519C124.803 144.195 125.594 144.033 126.556 144.033Z" fill="#1E293B"/>
<rect x="147" y="48" width="36" height="89" rx="4" fill="#E29123"/>
<path d="M161.983 143.992V154H160.719V145.571L158.169 146.501V145.359L161.785 143.992H161.983ZM172.135 144.047V144.758L168.013 154H166.68L170.795 145.086H165.408V144.047H172.135Z" fill="#1E293B"/>
<rect x="191" y="76" width="36" height="61" rx="4" fill="#E2E8F0"/>
<path d="M205.983 143.992V154H204.719V145.571L202.169 146.501V145.359L205.785 143.992H205.983ZM215.978 151.307C215.978 151.913 215.836 152.428 215.554 152.852C215.276 153.271 214.897 153.59 214.419 153.809C213.945 154.027 213.41 154.137 212.812 154.137C212.215 154.137 211.678 154.027 211.199 153.809C210.721 153.59 210.342 153.271 210.064 152.852C209.786 152.428 209.647 151.913 209.647 151.307C209.647 150.91 209.723 150.548 209.873 150.22C210.028 149.887 210.244 149.598 210.522 149.352C210.805 149.105 211.138 148.916 211.521 148.784C211.908 148.647 212.334 148.579 212.799 148.579C213.41 148.579 213.954 148.698 214.433 148.935C214.911 149.167 215.287 149.488 215.561 149.898C215.839 150.309 215.978 150.778 215.978 151.307ZM214.706 151.279C214.706 150.91 214.626 150.584 214.467 150.302C214.307 150.015 214.084 149.791 213.797 149.632C213.51 149.472 213.177 149.393 212.799 149.393C212.411 149.393 212.076 149.472 211.794 149.632C211.516 149.791 211.299 150.015 211.145 150.302C210.99 150.584 210.912 150.91 210.912 151.279C210.912 151.662 210.987 151.99 211.138 152.264C211.293 152.533 211.511 152.74 211.794 152.886C212.081 153.027 212.421 153.098 212.812 153.098C213.204 153.098 213.542 153.027 213.824 152.886C214.107 152.74 214.323 152.533 214.474 152.264C214.629 151.99 214.706 151.662 214.706 151.279ZM215.745 146.638C215.745 147.121 215.618 147.556 215.362 147.943C215.107 148.331 214.758 148.636 214.316 148.859C213.874 149.083 213.373 149.194 212.812 149.194C212.243 149.194 211.735 149.083 211.288 148.859C210.846 148.636 210.5 148.331 210.249 147.943C209.998 147.556 209.873 147.121 209.873 146.638C209.873 146.059 209.998 145.567 210.249 145.161C210.504 144.756 210.853 144.446 211.295 144.231C211.737 144.017 212.241 143.91 212.806 143.91C213.375 143.91 213.881 144.017 214.323 144.231C214.765 144.446 215.112 144.756 215.362 145.161C215.618 145.567 215.745 146.059 215.745 146.638ZM214.48 146.658C214.48 146.326 214.41 146.032 214.269 145.776C214.127 145.521 213.931 145.321 213.681 145.175C213.43 145.024 213.138 144.949 212.806 144.949C212.473 144.949 212.181 145.02 211.931 145.161C211.685 145.298 211.491 145.494 211.35 145.749C211.213 146.004 211.145 146.307 211.145 146.658C211.145 147 211.213 147.299 211.35 147.554C211.491 147.809 211.687 148.007 211.938 148.148C212.188 148.29 212.48 148.36 212.812 148.36C213.145 148.36 213.435 148.29 213.681 148.148C213.931 148.007 214.127 147.809 214.269 147.554C214.41 147.299 214.48 147 214.48 146.658Z" fill="#1E293B"/>
</svg>
