<svg width="208" height="119" viewBox="0 0 208 119" fill="none" xmlns="http://www.w3.org/2000/svg">
<rect x="0.5" y="0.5" width="207" height="118" rx="10.5" fill="white"/>
<rect x="0.5" y="0.5" width="207" height="118" rx="10.5" stroke="#E2E8F0"/>
<path d="M21.2822 28.1738L23.9004 30.252L22.7861 31.2295L20.2158 29.1719L21.2822 28.1738ZM23.9209 24.25V24.7969C23.9209 25.5488 23.8229 26.2233 23.627 26.8203C23.431 27.4173 23.1507 27.9255 22.7861 28.3447C22.4215 28.764 21.9863 29.0853 21.4805 29.3086C20.9746 29.5273 20.4141 29.6367 19.7988 29.6367C19.1882 29.6367 18.6299 29.5273 18.124 29.3086C17.6227 29.0853 17.1875 28.764 16.8184 28.3447C16.4492 27.9255 16.1621 27.4173 15.957 26.8203C15.7565 26.2233 15.6562 25.5488 15.6562 24.7969V24.25C15.6562 23.498 15.7565 22.8258 15.957 22.2334C16.1576 21.6364 16.4401 21.1283 16.8047 20.709C17.1738 20.2852 17.609 19.9639 18.1104 19.7451C18.6162 19.5218 19.1745 19.4102 19.7852 19.4102C20.4004 19.4102 20.9609 19.5218 21.4668 19.7451C21.9772 19.9639 22.4147 20.2852 22.7793 20.709C23.1439 21.1283 23.4242 21.6364 23.6201 22.2334C23.8206 22.8258 23.9209 23.498 23.9209 24.25ZM22.1982 24.7969V24.2363C22.1982 23.6803 22.1436 23.1904 22.0342 22.7666C21.9294 22.3382 21.7721 21.9805 21.5625 21.6934C21.3574 21.4017 21.1045 21.1829 20.8037 21.0371C20.5075 20.8867 20.168 20.8115 19.7852 20.8115C19.4115 20.8115 19.0765 20.8867 18.7803 21.0371C18.484 21.1829 18.2311 21.4017 18.0215 21.6934C17.8118 21.9805 17.6523 22.3382 17.543 22.7666C17.4336 23.1904 17.3789 23.6803 17.3789 24.2363V24.7969C17.3789 25.3529 17.4336 25.8451 17.543 26.2734C17.6523 26.7018 17.8118 27.0641 18.0215 27.3604C18.2357 27.652 18.4909 27.873 18.7871 28.0234C19.0879 28.1693 19.4251 28.2422 19.7988 28.2422C20.1816 28.2422 20.5212 28.1693 20.8174 28.0234C21.1136 27.873 21.3643 27.652 21.5693 27.3604C21.7744 27.0641 21.9294 26.7018 22.0342 26.2734C22.1436 25.8451 22.1982 25.3529 22.1982 24.7969ZM27.2637 22.1035V29.5H25.6094V22.1035H27.2637ZM25.5 20.1621C25.5 19.9115 25.582 19.7041 25.7461 19.54C25.9147 19.3714 26.1471 19.2871 26.4434 19.2871C26.735 19.2871 26.9652 19.3714 27.1338 19.54C27.3024 19.7041 27.3867 19.9115 27.3867 20.1621C27.3867 20.4082 27.3024 20.6133 27.1338 20.7773C26.9652 20.9414 26.735 21.0234 26.4434 21.0234C26.1471 21.0234 25.9147 20.9414 25.7461 20.7773C25.582 20.6133 25.5 20.4082 25.5 20.1621ZM31.2148 28.6934L33.2246 22.1035H34.9883L32.0215 30.6279C31.9531 30.8102 31.8643 31.0085 31.7549 31.2227C31.6455 31.4368 31.502 31.6396 31.3242 31.8311C31.151 32.027 30.9346 32.1842 30.6748 32.3027C30.415 32.4258 30.1006 32.4873 29.7314 32.4873C29.5856 32.4873 29.4443 32.4736 29.3076 32.4463C29.1755 32.4235 29.0501 32.3984 28.9316 32.3711L28.9248 31.1133C28.9704 31.1178 29.0251 31.1224 29.0889 31.127C29.1572 31.1315 29.2119 31.1338 29.2529 31.1338C29.5264 31.1338 29.7542 31.0996 29.9365 31.0312C30.1188 30.9674 30.2669 30.8626 30.3809 30.7168C30.4993 30.571 30.5996 30.375 30.6816 30.1289L31.2148 28.6934ZM30.0801 22.1035L31.8369 27.6406L32.1309 29.377L30.9893 29.6709L28.3027 22.1035H30.0801ZM39.9922 28.0166V24.4893C39.9922 24.2249 39.9443 23.9971 39.8486 23.8057C39.7529 23.6143 39.6071 23.4661 39.4111 23.3613C39.2197 23.2565 38.9782 23.2041 38.6865 23.2041C38.4176 23.2041 38.1852 23.2497 37.9893 23.3408C37.7933 23.432 37.6406 23.555 37.5312 23.71C37.4219 23.8649 37.3672 24.0404 37.3672 24.2363H35.7266C35.7266 23.9447 35.7972 23.6621 35.9385 23.3887C36.0798 23.1152 36.2848 22.8714 36.5537 22.6572C36.8226 22.443 37.1439 22.2744 37.5176 22.1514C37.8913 22.0283 38.3105 21.9668 38.7754 21.9668C39.3314 21.9668 39.8236 22.0602 40.252 22.2471C40.6849 22.4339 41.0244 22.7165 41.2705 23.0947C41.5212 23.4684 41.6465 23.9378 41.6465 24.5029V27.791C41.6465 28.1283 41.6693 28.4313 41.7148 28.7002C41.765 28.9645 41.8356 29.1947 41.9268 29.3906V29.5H40.2383C40.1608 29.3223 40.0993 29.0967 40.0537 28.8232C40.0127 28.5452 39.9922 28.2764 39.9922 28.0166ZM40.2314 25.002L40.2451 26.0205H39.0625C38.7572 26.0205 38.4883 26.0501 38.2559 26.1094C38.0234 26.1641 37.8298 26.2461 37.6748 26.3555C37.5199 26.4648 37.4036 26.597 37.3262 26.752C37.2487 26.9069 37.21 27.0824 37.21 27.2783C37.21 27.4743 37.2555 27.6543 37.3467 27.8184C37.4378 27.9779 37.57 28.1032 37.7432 28.1943C37.9209 28.2855 38.1351 28.3311 38.3857 28.3311C38.723 28.3311 39.0169 28.2627 39.2676 28.126C39.5228 27.9847 39.7233 27.8138 39.8691 27.6133C40.015 27.4082 40.0924 27.2145 40.1016 27.0322L40.6348 27.7637C40.5801 27.9505 40.4867 28.151 40.3545 28.3652C40.2223 28.5794 40.0492 28.7845 39.835 28.9805C39.6253 29.1719 39.3724 29.3291 39.0762 29.4521C38.7845 29.5752 38.4473 29.6367 38.0645 29.6367C37.5814 29.6367 37.1507 29.541 36.7725 29.3496C36.3942 29.1536 36.098 28.8916 35.8838 28.5635C35.6696 28.2308 35.5625 27.8548 35.5625 27.4355C35.5625 27.0436 35.6354 26.6973 35.7812 26.3965C35.9316 26.0911 36.1504 25.8359 36.4375 25.6309C36.7292 25.4258 37.0846 25.2708 37.5039 25.166C37.9232 25.0566 38.4017 25.002 38.9395 25.002H40.2314ZM45.0166 23.6074V29.5H43.3691V22.1035H44.9209L45.0166 23.6074ZM44.75 25.5283L44.1895 25.5215C44.1895 25.0111 44.2533 24.5394 44.3809 24.1064C44.5085 23.6735 44.6953 23.2975 44.9414 22.9785C45.1875 22.6549 45.4928 22.4066 45.8574 22.2334C46.2266 22.0557 46.6527 21.9668 47.1357 21.9668C47.473 21.9668 47.7806 22.0169 48.0586 22.1172C48.3411 22.2129 48.585 22.3656 48.79 22.5752C48.9997 22.7848 49.1592 23.0537 49.2686 23.3818C49.3825 23.71 49.4395 24.1064 49.4395 24.5713V29.5H47.792V24.7148C47.792 24.3548 47.7373 24.0723 47.6279 23.8672C47.5231 23.6621 47.3704 23.5163 47.1699 23.4297C46.974 23.3385 46.7393 23.293 46.4658 23.293C46.1559 23.293 45.8916 23.3522 45.6729 23.4707C45.4587 23.5892 45.2832 23.751 45.1465 23.9561C45.0098 24.1611 44.9095 24.3981 44.8457 24.667C44.7819 24.9359 44.75 25.223 44.75 25.5283ZM49.3369 25.0908L48.5645 25.2617C48.5645 24.8151 48.626 24.3936 48.749 23.9971C48.8766 23.596 49.0612 23.2451 49.3027 22.9443C49.5488 22.639 49.8519 22.3997 50.2119 22.2266C50.5719 22.0534 50.9844 21.9668 51.4492 21.9668C51.8275 21.9668 52.1647 22.0192 52.4609 22.124C52.7617 22.2243 53.0169 22.3838 53.2266 22.6025C53.4362 22.8213 53.5957 23.1061 53.7051 23.457C53.8145 23.8034 53.8691 24.2227 53.8691 24.7148V29.5H52.2148V24.708C52.2148 24.3343 52.1602 24.0449 52.0508 23.8398C51.946 23.6348 51.7956 23.4935 51.5996 23.416C51.4036 23.334 51.1689 23.293 50.8955 23.293C50.6403 23.293 50.4147 23.3408 50.2188 23.4365C50.0273 23.5277 49.8656 23.6576 49.7334 23.8262C49.6012 23.9902 49.501 24.1794 49.4326 24.3936C49.3688 24.6077 49.3369 24.8402 49.3369 25.0908ZM60.0146 27.7568V22.1035H61.6689V29.5H60.1104L60.0146 27.7568ZM60.2471 26.2188L60.8008 26.2051C60.8008 26.7018 60.7461 27.1598 60.6367 27.5791C60.5273 27.9938 60.3587 28.3561 60.1309 28.666C59.903 28.9714 59.6113 29.2106 59.2559 29.3838C58.9004 29.5524 58.4743 29.6367 57.9775 29.6367C57.6175 29.6367 57.2871 29.5843 56.9863 29.4795C56.6855 29.3747 56.4258 29.2129 56.207 28.9941C55.9928 28.7754 55.8265 28.4906 55.708 28.1396C55.5895 27.7887 55.5303 27.3695 55.5303 26.8818V22.1035H57.1777V26.8955C57.1777 27.1644 57.2096 27.39 57.2734 27.5723C57.3372 27.75 57.4238 27.8936 57.5332 28.0029C57.6426 28.1123 57.7702 28.1898 57.916 28.2354C58.0618 28.2809 58.2168 28.3037 58.3809 28.3037C58.8503 28.3037 59.2194 28.2126 59.4883 28.0303C59.7617 27.8434 59.9554 27.5928 60.0693 27.2783C60.1878 26.9639 60.2471 26.6107 60.2471 26.2188ZM65.1211 19V29.5H63.4668V19H65.1211ZM76.8105 28.1396V29.5H71.8135V28.1396H76.8105ZM72.292 19.5469V29.5H70.5762V19.5469H72.292ZM82.1426 28.0166V24.4893C82.1426 24.2249 82.0947 23.9971 81.999 23.8057C81.9033 23.6143 81.7575 23.4661 81.5615 23.3613C81.3701 23.2565 81.1286 23.2041 80.8369 23.2041C80.568 23.2041 80.3356 23.2497 80.1396 23.3408C79.9437 23.432 79.791 23.555 79.6816 23.71C79.5723 23.8649 79.5176 24.0404 79.5176 24.2363H77.877C77.877 23.9447 77.9476 23.6621 78.0889 23.3887C78.2301 23.1152 78.4352 22.8714 78.7041 22.6572C78.973 22.443 79.2943 22.2744 79.668 22.1514C80.0417 22.0283 80.4609 21.9668 80.9258 21.9668C81.4818 21.9668 81.974 22.0602 82.4023 22.2471C82.8353 22.4339 83.1748 22.7165 83.4209 23.0947C83.6715 23.4684 83.7969 23.9378 83.7969 24.5029V27.791C83.7969 28.1283 83.8197 28.4313 83.8652 28.7002C83.9154 28.9645 83.986 29.1947 84.0771 29.3906V29.5H82.3887C82.3112 29.3223 82.2497 29.0967 82.2041 28.8232C82.1631 28.5452 82.1426 28.2764 82.1426 28.0166ZM82.3818 25.002L82.3955 26.0205H81.2129C80.9076 26.0205 80.6387 26.0501 80.4062 26.1094C80.1738 26.1641 79.9801 26.2461 79.8252 26.3555C79.6702 26.4648 79.554 26.597 79.4766 26.752C79.3991 26.9069 79.3604 27.0824 79.3604 27.2783C79.3604 27.4743 79.4059 27.6543 79.4971 27.8184C79.5882 27.9779 79.7204 28.1032 79.8936 28.1943C80.0713 28.2855 80.2855 28.3311 80.5361 28.3311C80.8734 28.3311 81.1673 28.2627 81.418 28.126C81.6732 27.9847 81.8737 27.8138 82.0195 27.6133C82.1654 27.4082 82.2428 27.2145 82.252 27.0322L82.7852 27.7637C82.7305 27.9505 82.637 28.151 82.5049 28.3652C82.3727 28.5794 82.1995 28.7845 81.9854 28.9805C81.7757 29.1719 81.5228 29.3291 81.2266 29.4521C80.9349 29.5752 80.5977 29.6367 80.2148 29.6367C79.7318 29.6367 79.3011 29.541 78.9229 29.3496C78.5446 29.1536 78.2484 28.8916 78.0342 28.5635C77.82 28.2308 77.7129 27.8548 77.7129 27.4355C77.7129 27.0436 77.7858 26.6973 77.9316 26.3965C78.082 26.0911 78.3008 25.8359 78.5879 25.6309C78.8796 25.4258 79.235 25.2708 79.6543 25.166C80.0736 25.0566 80.5521 25.002 81.0898 25.002H82.3818ZM87.2832 22.1035V29.5H85.6289V22.1035H87.2832ZM85.5195 20.1621C85.5195 19.9115 85.6016 19.7041 85.7656 19.54C85.9342 19.3714 86.1667 19.2871 86.4629 19.2871C86.7546 19.2871 86.9847 19.3714 87.1533 19.54C87.3219 19.7041 87.4062 19.9115 87.4062 20.1621C87.4062 20.4082 87.3219 20.6133 87.1533 20.7773C86.9847 20.9414 86.7546 21.0234 86.4629 21.0234C86.1667 21.0234 85.9342 20.9414 85.7656 20.7773C85.6016 20.6133 85.5195 20.4082 85.5195 20.1621ZM90.8516 19V29.5H89.1973V19H90.8516Z" fill="#94A3B8"/>
<path d="M15 26H91.8086V26.6973H15V26Z" fill="#94A3B8"/>
<circle cx="184" cy="24.5" r="8.5" fill="#E29123" stroke="#E2E8F0"/>
<path fill-rule="evenodd" clip-rule="evenodd" d="M188.354 22.1464C188.549 22.3417 188.549 22.6583 188.354 22.8536L183.707 27.5C183.317 27.8906 182.683 27.8905 182.293 27.5L180.146 25.3536C179.951 25.1583 179.951 24.8417 180.146 24.6465C180.342 24.4512 180.658 24.4512 180.854 24.6465L183 26.7929L187.646 22.1464C187.842 21.9512 188.158 21.9512 188.354 22.1464Z" fill="white"/>
<line x1="15" y1="41.5" x2="193" y2="41.5" stroke="#E2E8F0"/>
<path d="M21.248 61.9365C21.248 61.7314 21.2161 61.5492 21.1523 61.3896C21.0931 61.2301 20.986 61.0843 20.8311 60.9521C20.6761 60.82 20.4574 60.6924 20.1748 60.5693C19.8968 60.4417 19.5413 60.3118 19.1084 60.1797C18.6344 60.0339 18.1969 59.8721 17.7959 59.6943C17.3994 59.512 17.0531 59.3024 16.7568 59.0654C16.4606 58.8239 16.2305 58.5482 16.0664 58.2383C15.9023 57.9238 15.8203 57.5615 15.8203 57.1514C15.8203 56.7458 15.9046 56.3766 16.0732 56.0439C16.2464 55.7113 16.4902 55.4242 16.8047 55.1826C17.1237 54.9365 17.4997 54.7474 17.9326 54.6152C18.3656 54.4785 18.8441 54.4102 19.3682 54.4102C20.1064 54.4102 20.7422 54.5469 21.2754 54.8203C21.8132 55.0938 22.2256 55.4606 22.5127 55.9209C22.8044 56.3812 22.9502 56.8893 22.9502 57.4453H21.248C21.248 57.1172 21.1774 56.8278 21.0361 56.5771C20.8994 56.3219 20.6898 56.1214 20.4072 55.9756C20.1292 55.8298 19.776 55.7568 19.3477 55.7568C18.9421 55.7568 18.6048 55.8184 18.3359 55.9414C18.0671 56.0645 17.8665 56.2308 17.7344 56.4404C17.6022 56.6501 17.5361 56.887 17.5361 57.1514C17.5361 57.3382 17.5794 57.5091 17.666 57.6641C17.7526 57.8145 17.8848 57.9557 18.0625 58.0879C18.2402 58.2155 18.4635 58.3363 18.7324 58.4502C19.0013 58.5641 19.318 58.6735 19.6826 58.7783C20.234 58.9424 20.7148 59.1247 21.125 59.3252C21.5352 59.5212 21.877 59.7445 22.1504 59.9951C22.4238 60.2458 22.6289 60.5306 22.7656 60.8496C22.9023 61.1641 22.9707 61.5218 22.9707 61.9229C22.9707 62.3421 22.8864 62.7204 22.7178 63.0576C22.5492 63.3903 22.3076 63.6751 21.9932 63.9121C21.6833 64.1445 21.3096 64.3245 20.8721 64.4521C20.4391 64.5752 19.9561 64.6367 19.4229 64.6367C18.9443 64.6367 18.4727 64.5729 18.0078 64.4453C17.5475 64.3177 17.1283 64.124 16.75 63.8643C16.3717 63.5999 16.071 63.2718 15.8477 62.8799C15.6243 62.4834 15.5127 62.0208 15.5127 61.4922H17.2285C17.2285 61.8158 17.2832 62.0915 17.3926 62.3193C17.5065 62.5472 17.6637 62.734 17.8643 62.8799C18.0648 63.0212 18.2972 63.126 18.5615 63.1943C18.8304 63.2627 19.1175 63.2969 19.4229 63.2969C19.8239 63.2969 20.1589 63.2399 20.4277 63.126C20.7012 63.012 20.9062 62.8525 21.043 62.6475C21.1797 62.4424 21.248 62.2054 21.248 61.9365ZM25.9512 54V64.5H24.3105V54H25.9512ZM25.6641 60.5283L25.1309 60.5215C25.1354 60.0111 25.2061 59.5394 25.3428 59.1064C25.484 58.6735 25.68 58.2975 25.9307 57.9785C26.1859 57.6549 26.4912 57.4066 26.8467 57.2334C27.2021 57.0557 27.5964 56.9668 28.0293 56.9668C28.3939 56.9668 28.722 57.0169 29.0137 57.1172C29.3099 57.2174 29.5651 57.3792 29.7793 57.6025C29.9935 57.8213 30.1553 58.1084 30.2646 58.4639C30.3786 58.8148 30.4355 59.2432 30.4355 59.749V64.5H28.7812V59.7354C28.7812 59.3799 28.7288 59.0973 28.624 58.8877C28.5238 58.6781 28.3757 58.5277 28.1797 58.4365C27.9837 58.3408 27.7445 58.293 27.4619 58.293C27.1657 58.293 26.9036 58.3522 26.6758 58.4707C26.4525 58.5892 26.2656 58.751 26.1152 58.9561C25.9648 59.1611 25.8509 59.3981 25.7734 59.667C25.7005 59.9359 25.6641 60.223 25.6641 60.5283ZM31.7891 60.8838V60.7266C31.7891 60.1934 31.8665 59.6989 32.0215 59.2432C32.1764 58.7829 32.3997 58.3841 32.6914 58.0469C32.9876 57.7051 33.3477 57.4408 33.7715 57.2539C34.1999 57.0625 34.6829 56.9668 35.2207 56.9668C35.763 56.9668 36.2461 57.0625 36.6699 57.2539C37.0983 57.4408 37.4606 57.7051 37.7568 58.0469C38.0531 58.3841 38.2786 58.7829 38.4336 59.2432C38.5885 59.6989 38.666 60.1934 38.666 60.7266V60.8838C38.666 61.417 38.5885 61.9115 38.4336 62.3672C38.2786 62.8229 38.0531 63.2217 37.7568 63.5635C37.4606 63.9007 37.1006 64.165 36.6768 64.3564C36.2529 64.5433 35.7721 64.6367 35.2344 64.6367C34.6921 64.6367 34.2067 64.5433 33.7783 64.3564C33.3545 64.165 32.9945 63.9007 32.6982 63.5635C32.402 63.2217 32.1764 62.8229 32.0215 62.3672C31.8665 61.9115 31.7891 61.417 31.7891 60.8838ZM33.4365 60.7266V60.8838C33.4365 61.2165 33.4707 61.5309 33.5391 61.8271C33.6074 62.1234 33.7145 62.3831 33.8604 62.6064C34.0062 62.8298 34.193 63.0052 34.4209 63.1328C34.6488 63.2604 34.9199 63.3242 35.2344 63.3242C35.5397 63.3242 35.804 63.2604 36.0273 63.1328C36.2552 63.0052 36.4421 62.8298 36.5879 62.6064C36.7337 62.3831 36.8408 62.1234 36.9092 61.8271C36.9821 61.5309 37.0186 61.2165 37.0186 60.8838V60.7266C37.0186 60.3984 36.9821 60.0885 36.9092 59.7969C36.8408 59.5007 36.7314 59.2386 36.5811 59.0107C36.4352 58.7829 36.2484 58.6051 36.0205 58.4775C35.7972 58.3454 35.5306 58.2793 35.2207 58.2793C34.9108 58.2793 34.6419 58.3454 34.4141 58.4775C34.1908 58.6051 34.0062 58.7829 33.8604 59.0107C33.7145 59.2386 33.6074 59.5007 33.5391 59.7969C33.4707 60.0885 33.4365 60.3984 33.4365 60.7266ZM41.8105 54V64.5H40.1562V54H41.8105ZM47.7852 63.0166V59.4893C47.7852 59.2249 47.7373 58.9971 47.6416 58.8057C47.5459 58.6143 47.4001 58.4661 47.2041 58.3613C47.0127 58.2565 46.7712 58.2041 46.4795 58.2041C46.2106 58.2041 45.9782 58.2497 45.7822 58.3408C45.5863 58.432 45.4336 58.555 45.3242 58.71C45.2148 58.8649 45.1602 59.0404 45.1602 59.2363H43.5195C43.5195 58.9447 43.5902 58.6621 43.7314 58.3887C43.8727 58.1152 44.0778 57.8714 44.3467 57.6572C44.6156 57.443 44.9368 57.2744 45.3105 57.1514C45.6842 57.0283 46.1035 56.9668 46.5684 56.9668C47.1243 56.9668 47.6165 57.0602 48.0449 57.2471C48.4779 57.4339 48.8174 57.7165 49.0635 58.0947C49.3141 58.4684 49.4395 58.9378 49.4395 59.5029V62.791C49.4395 63.1283 49.4622 63.4313 49.5078 63.7002C49.5579 63.9645 49.6286 64.1947 49.7197 64.3906V64.5H48.0312C47.9538 64.3223 47.8923 64.0967 47.8467 63.8232C47.8057 63.5452 47.7852 63.2764 47.7852 63.0166ZM48.0244 60.002L48.0381 61.0205H46.8555C46.5501 61.0205 46.2812 61.0501 46.0488 61.1094C45.8164 61.1641 45.6227 61.2461 45.4678 61.3555C45.3128 61.4648 45.1966 61.597 45.1191 61.752C45.0417 61.9069 45.0029 62.0824 45.0029 62.2783C45.0029 62.4743 45.0485 62.6543 45.1396 62.8184C45.2308 62.9779 45.363 63.1032 45.5361 63.1943C45.7139 63.2855 45.9281 63.3311 46.1787 63.3311C46.516 63.3311 46.8099 63.2627 47.0605 63.126C47.3158 62.9847 47.5163 62.8138 47.6621 62.6133C47.8079 62.4082 47.8854 62.2145 47.8945 62.0322L48.4277 62.7637C48.373 62.9505 48.2796 63.151 48.1475 63.3652C48.0153 63.5794 47.8421 63.7845 47.6279 63.9805C47.4183 64.1719 47.1654 64.3291 46.8691 64.4521C46.5775 64.5752 46.2402 64.6367 45.8574 64.6367C45.3743 64.6367 44.9437 64.541 44.5654 64.3496C44.1872 64.1536 43.891 63.8916 43.6768 63.5635C43.4626 63.2308 43.3555 62.8548 43.3555 62.4355C43.3555 62.0436 43.4284 61.6973 43.5742 61.3965C43.7246 61.0911 43.9434 60.8359 44.2305 60.6309C44.5221 60.4258 44.8776 60.2708 45.2969 60.166C45.7161 60.0566 46.1947 60.002 46.7324 60.002H48.0244ZM54.5527 57.1035V58.3066H50.3828V57.1035H54.5527ZM51.5859 55.292H53.2334V62.4561C53.2334 62.6839 53.2653 62.8594 53.3291 62.9824C53.3975 63.1009 53.4909 63.1807 53.6094 63.2217C53.7279 63.2627 53.8669 63.2832 54.0264 63.2832C54.1403 63.2832 54.2497 63.2764 54.3545 63.2627C54.4593 63.249 54.5436 63.2354 54.6074 63.2217L54.6143 64.4795C54.4775 64.5205 54.318 64.557 54.1357 64.5889C53.958 64.6208 53.7529 64.6367 53.5205 64.6367C53.1423 64.6367 52.8073 64.5706 52.5156 64.4385C52.224 64.3018 51.9961 64.0807 51.832 63.7754C51.668 63.4701 51.5859 63.0645 51.5859 62.5586V55.292ZM62.3662 64.5H60.2402L60.2539 63.1396H62.3662C62.9814 63.1396 63.4964 63.0052 63.9111 62.7363C64.3304 62.4674 64.6449 62.0824 64.8545 61.5811C65.0687 61.0798 65.1758 60.4827 65.1758 59.79V59.25C65.1758 58.7122 65.1143 58.236 64.9912 57.8213C64.8727 57.4066 64.695 57.0579 64.458 56.7754C64.2256 56.4928 63.9385 56.2786 63.5967 56.1328C63.2594 55.987 62.8698 55.9141 62.4277 55.9141H60.1992V54.5469H62.4277C63.0885 54.5469 63.6924 54.6585 64.2393 54.8818C64.7861 55.1006 65.2578 55.4173 65.6543 55.832C66.0553 56.2467 66.363 56.7435 66.5771 57.3223C66.7913 57.901 66.8984 58.5482 66.8984 59.2637V59.79C66.8984 60.5055 66.7913 61.1527 66.5771 61.7314C66.363 62.3102 66.0553 62.807 65.6543 63.2217C65.2533 63.6318 64.7747 63.9486 64.2188 64.1719C63.6673 64.3906 63.0498 64.5 62.3662 64.5ZM61.1904 54.5469V64.5H59.4746V54.5469H61.1904ZM70.084 54V64.5H68.4434V54H70.084ZM69.7969 60.5283L69.2637 60.5215C69.2682 60.0111 69.3389 59.5394 69.4756 59.1064C69.6169 58.6735 69.8128 58.2975 70.0635 57.9785C70.3187 57.6549 70.624 57.4066 70.9795 57.2334C71.335 57.0557 71.7292 56.9668 72.1621 56.9668C72.5267 56.9668 72.8548 57.0169 73.1465 57.1172C73.4427 57.2174 73.6979 57.3792 73.9121 57.6025C74.1263 57.8213 74.2881 58.1084 74.3975 58.4639C74.5114 58.8148 74.5684 59.2432 74.5684 59.749V64.5H72.9141V59.7354C72.9141 59.3799 72.8617 59.0973 72.7568 58.8877C72.6566 58.6781 72.5085 58.5277 72.3125 58.4365C72.1165 58.3408 71.8773 58.293 71.5947 58.293C71.2985 58.293 71.0365 58.3522 70.8086 58.4707C70.5853 58.5892 70.3984 58.751 70.248 58.9561C70.0977 59.1611 69.9837 59.3981 69.9062 59.667C69.8333 59.9359 69.7969 60.223 69.7969 60.5283ZM80.6865 62.7568V57.1035H82.3408V64.5H80.7822L80.6865 62.7568ZM80.9189 61.2188L81.4727 61.2051C81.4727 61.7018 81.418 62.1598 81.3086 62.5791C81.1992 62.9938 81.0306 63.3561 80.8027 63.666C80.5749 63.9714 80.2832 64.2106 79.9277 64.3838C79.5723 64.5524 79.1462 64.6367 78.6494 64.6367C78.2894 64.6367 77.959 64.5843 77.6582 64.4795C77.3574 64.3747 77.0977 64.2129 76.8789 63.9941C76.6647 63.7754 76.4984 63.4906 76.3799 63.1396C76.2614 62.7887 76.2021 62.3695 76.2021 61.8818V57.1035H77.8496V61.8955C77.8496 62.1644 77.8815 62.39 77.9453 62.5723C78.0091 62.75 78.0957 62.8936 78.2051 63.0029C78.3145 63.1123 78.4421 63.1898 78.5879 63.2354C78.7337 63.2809 78.8887 63.3037 79.0527 63.3037C79.5221 63.3037 79.8913 63.2126 80.1602 63.0303C80.4336 62.8434 80.6273 62.5928 80.7412 62.2783C80.8597 61.9639 80.9189 61.6107 80.9189 61.2188ZM85.6562 54V64.5H84.0156V54H85.6562ZM85.3691 60.5283L84.8359 60.5215C84.8405 60.0111 84.9111 59.5394 85.0479 59.1064C85.1891 58.6735 85.3851 58.2975 85.6357 57.9785C85.891 57.6549 86.1963 57.4066 86.5518 57.2334C86.9072 57.0557 87.3014 56.9668 87.7344 56.9668C88.099 56.9668 88.4271 57.0169 88.7188 57.1172C89.015 57.2174 89.2702 57.3792 89.4844 57.6025C89.6986 57.8213 89.8604 58.1084 89.9697 58.4639C90.0837 58.8148 90.1406 59.2432 90.1406 59.749V64.5H88.4863V59.7354C88.4863 59.3799 88.4339 59.0973 88.3291 58.8877C88.2288 58.6781 88.0807 58.5277 87.8848 58.4365C87.6888 58.3408 87.4495 58.293 87.167 58.293C86.8708 58.293 86.6087 58.3522 86.3809 58.4707C86.1576 58.5892 85.9707 58.751 85.8203 58.9561C85.6699 59.1611 85.556 59.3981 85.4785 59.667C85.4056 59.9359 85.3691 60.223 85.3691 60.5283ZM95.9785 63.0166V59.4893C95.9785 59.2249 95.9307 58.9971 95.835 58.8057C95.7393 58.6143 95.5934 58.4661 95.3975 58.3613C95.2061 58.2565 94.9645 58.2041 94.6729 58.2041C94.404 58.2041 94.1715 58.2497 93.9756 58.3408C93.7796 58.432 93.627 58.555 93.5176 58.71C93.4082 58.8649 93.3535 59.0404 93.3535 59.2363H91.7129C91.7129 58.9447 91.7835 58.6621 91.9248 58.3887C92.0661 58.1152 92.2712 57.8714 92.54 57.6572C92.8089 57.443 93.1302 57.2744 93.5039 57.1514C93.8776 57.0283 94.2969 56.9668 94.7617 56.9668C95.3177 56.9668 95.8099 57.0602 96.2383 57.2471C96.6712 57.4339 97.0107 57.7165 97.2568 58.0947C97.5075 58.4684 97.6328 58.9378 97.6328 59.5029V62.791C97.6328 63.1283 97.6556 63.4313 97.7012 63.7002C97.7513 63.9645 97.8219 64.1947 97.9131 64.3906V64.5H96.2246C96.1471 64.3223 96.0856 64.0967 96.04 63.8232C95.999 63.5452 95.9785 63.2764 95.9785 63.0166ZM96.2178 60.002L96.2314 61.0205H95.0488C94.7435 61.0205 94.4746 61.0501 94.2422 61.1094C94.0098 61.1641 93.8161 61.2461 93.6611 61.3555C93.5062 61.4648 93.39 61.597 93.3125 61.752C93.235 61.9069 93.1963 62.0824 93.1963 62.2783C93.1963 62.4743 93.2419 62.6543 93.333 62.8184C93.4242 62.9779 93.5563 63.1032 93.7295 63.1943C93.9072 63.2855 94.1214 63.3311 94.3721 63.3311C94.7093 63.3311 95.0033 63.2627 95.2539 63.126C95.5091 62.9847 95.7096 62.8138 95.8555 62.6133C96.0013 62.4082 96.0788 62.2145 96.0879 62.0322L96.6211 62.7637C96.5664 62.9505 96.473 63.151 96.3408 63.3652C96.2087 63.5794 96.0355 63.7845 95.8213 63.9805C95.6117 64.1719 95.3587 64.3291 95.0625 64.4521C94.7708 64.5752 94.4336 64.6367 94.0508 64.6367C93.5677 64.6367 93.137 64.541 92.7588 64.3496C92.3805 64.1536 92.0843 63.8916 91.8701 63.5635C91.6559 63.2308 91.5488 62.8548 91.5488 62.4355C91.5488 62.0436 91.6217 61.6973 91.7676 61.3965C91.918 61.0911 92.1367 60.8359 92.4238 60.6309C92.7155 60.4258 93.071 60.2708 93.4902 60.166C93.9095 60.0566 94.388 60.002 94.9258 60.002H96.2178Z" fill="#94A3B8"/>
<path d="M15 61H98.5078V61.6973H15V61Z" fill="#94A3B8"/>
<circle cx="184" cy="59.5" r="8.5" fill="#E29123" stroke="#E2E8F0"/>
<path fill-rule="evenodd" clip-rule="evenodd" d="M188.354 57.1464C188.549 57.3417 188.549 57.6583 188.354 57.8536L183.707 62.5C183.317 62.8906 182.683 62.8905 182.293 62.5L180.146 60.3536C179.951 60.1583 179.951 59.8417 180.146 59.6465C180.342 59.4512 180.658 59.4512 180.854 59.6465L183 61.7929L187.646 57.1464C187.842 56.9512 188.158 56.9512 188.354 57.1464Z" fill="white"/>
<line x1="15" y1="76.5" x2="193" y2="76.5" stroke="#E2E8F0"/>
<path d="M21.248 96.9365C21.248 96.7314 21.2161 96.5492 21.1523 96.3896C21.0931 96.2301 20.986 96.0843 20.8311 95.9521C20.6761 95.82 20.4574 95.6924 20.1748 95.5693C19.8968 95.4417 19.5413 95.3118 19.1084 95.1797C18.6344 95.0339 18.1969 94.8721 17.7959 94.6943C17.3994 94.512 17.0531 94.3024 16.7568 94.0654C16.4606 93.8239 16.2305 93.5482 16.0664 93.2383C15.9023 92.9238 15.8203 92.5615 15.8203 92.1514C15.8203 91.7458 15.9046 91.3766 16.0732 91.0439C16.2464 90.7113 16.4902 90.4242 16.8047 90.1826C17.1237 89.9365 17.4997 89.7474 17.9326 89.6152C18.3656 89.4785 18.8441 89.4102 19.3682 89.4102C20.1064 89.4102 20.7422 89.5469 21.2754 89.8203C21.8132 90.0938 22.2256 90.4606 22.5127 90.9209C22.8044 91.3812 22.9502 91.8893 22.9502 92.4453H21.248C21.248 92.1172 21.1774 91.8278 21.0361 91.5771C20.8994 91.3219 20.6898 91.1214 20.4072 90.9756C20.1292 90.8298 19.776 90.7568 19.3477 90.7568C18.9421 90.7568 18.6048 90.8184 18.3359 90.9414C18.0671 91.0645 17.8665 91.2308 17.7344 91.4404C17.6022 91.6501 17.5361 91.887 17.5361 92.1514C17.5361 92.3382 17.5794 92.5091 17.666 92.6641C17.7526 92.8145 17.8848 92.9557 18.0625 93.0879C18.2402 93.2155 18.4635 93.3363 18.7324 93.4502C19.0013 93.5641 19.318 93.6735 19.6826 93.7783C20.234 93.9424 20.7148 94.1247 21.125 94.3252C21.5352 94.5212 21.877 94.7445 22.1504 94.9951C22.4238 95.2458 22.6289 95.5306 22.7656 95.8496C22.9023 96.1641 22.9707 96.5218 22.9707 96.9229C22.9707 97.3421 22.8864 97.7204 22.7178 98.0576C22.5492 98.3903 22.3076 98.6751 21.9932 98.9121C21.6833 99.1445 21.3096 99.3245 20.8721 99.4521C20.4391 99.5752 19.9561 99.6367 19.4229 99.6367C18.9443 99.6367 18.4727 99.5729 18.0078 99.4453C17.5475 99.3177 17.1283 99.124 16.75 98.8643C16.3717 98.5999 16.071 98.2718 15.8477 97.8799C15.6243 97.4834 15.5127 97.0208 15.5127 96.4922H17.2285C17.2285 96.8158 17.2832 97.0915 17.3926 97.3193C17.5065 97.5472 17.6637 97.734 17.8643 97.8799C18.0648 98.0212 18.2972 98.126 18.5615 98.1943C18.8304 98.2627 19.1175 98.2969 19.4229 98.2969C19.8239 98.2969 20.1589 98.2399 20.4277 98.126C20.7012 98.012 20.9062 97.8525 21.043 97.6475C21.1797 97.4424 21.248 97.2054 21.248 96.9365ZM27.585 99.6367C27.0381 99.6367 26.5436 99.5479 26.1016 99.3701C25.6641 99.1878 25.2904 98.9349 24.9805 98.6113C24.6751 98.2878 24.4404 97.9072 24.2764 97.4697C24.1123 97.0322 24.0303 96.5605 24.0303 96.0547V95.7812C24.0303 95.2025 24.1146 94.6784 24.2832 94.209C24.4518 93.7396 24.6865 93.3385 24.9873 93.0059C25.2881 92.6686 25.6436 92.4111 26.0537 92.2334C26.4639 92.0557 26.9082 91.9668 27.3867 91.9668C27.9154 91.9668 28.3779 92.0557 28.7744 92.2334C29.1709 92.4111 29.499 92.6618 29.7588 92.9854C30.0231 93.3044 30.2191 93.6849 30.3467 94.127C30.4788 94.569 30.5449 95.0566 30.5449 95.5898V96.2939H24.8301V95.1113H28.918V94.9814C28.9089 94.6852 28.8496 94.4072 28.7402 94.1475C28.6354 93.8877 28.4736 93.6781 28.2549 93.5186C28.0361 93.359 27.7445 93.2793 27.3799 93.2793C27.1064 93.2793 26.8626 93.3385 26.6484 93.457C26.4388 93.571 26.2633 93.7373 26.1221 93.9561C25.9808 94.1748 25.8714 94.4391 25.7939 94.749C25.721 95.0544 25.6846 95.3984 25.6846 95.7812V96.0547C25.6846 96.3783 25.7279 96.679 25.8145 96.957C25.9056 97.2305 26.0378 97.4697 26.2109 97.6748C26.3841 97.8799 26.5938 98.0417 26.8398 98.1602C27.0859 98.2741 27.3662 98.3311 27.6807 98.3311C28.0771 98.3311 28.4303 98.2513 28.7402 98.0918C29.0501 97.9323 29.319 97.7067 29.5469 97.415L30.415 98.2559C30.2555 98.4883 30.0482 98.7116 29.793 98.9258C29.5378 99.1354 29.2256 99.3063 28.8564 99.4385C28.4919 99.5706 28.068 99.6367 27.585 99.6367ZM36.3418 97.9688V89H37.9961V99.5H36.499L36.3418 97.9688ZM31.5293 95.8838V95.7402C31.5293 95.1797 31.5954 94.6693 31.7275 94.209C31.8597 93.7441 32.0511 93.3454 32.3018 93.0127C32.5524 92.6755 32.8577 92.418 33.2178 92.2402C33.5778 92.0579 33.9834 91.9668 34.4346 91.9668C34.8812 91.9668 35.2731 92.0534 35.6104 92.2266C35.9476 92.3997 36.2347 92.6481 36.4717 92.9717C36.7087 93.2907 36.8978 93.6735 37.0391 94.1201C37.1803 94.5622 37.2806 95.0544 37.3398 95.5967V96.0547C37.2806 96.5833 37.1803 97.0664 37.0391 97.5039C36.8978 97.9414 36.7087 98.3197 36.4717 98.6387C36.2347 98.9577 35.9453 99.2038 35.6035 99.377C35.2663 99.5501 34.8721 99.6367 34.4209 99.6367C33.9743 99.6367 33.571 99.5433 33.2109 99.3564C32.8555 99.1696 32.5524 98.9076 32.3018 98.5703C32.0511 98.2331 31.8597 97.8366 31.7275 97.3809C31.5954 96.9206 31.5293 96.4215 31.5293 95.8838ZM33.1768 95.7402V95.8838C33.1768 96.221 33.2064 96.5355 33.2656 96.8271C33.3294 97.1188 33.4274 97.3763 33.5596 97.5996C33.6917 97.8184 33.8626 97.9915 34.0723 98.1191C34.2865 98.2422 34.5417 98.3037 34.8379 98.3037C35.2116 98.3037 35.5192 98.2217 35.7607 98.0576C36.0023 97.8936 36.1914 97.6725 36.3281 97.3945C36.4694 97.112 36.5651 96.7975 36.6152 96.4512V95.2139C36.5879 94.945 36.5309 94.6943 36.4443 94.4619C36.3623 94.2295 36.2507 94.0267 36.1094 93.8535C35.9681 93.6758 35.7926 93.5391 35.583 93.4434C35.3779 93.3431 35.1341 93.293 34.8516 93.293C34.5508 93.293 34.2956 93.3568 34.0859 93.4844C33.8763 93.612 33.7031 93.7874 33.5664 94.0107C33.4342 94.234 33.3363 94.4938 33.2725 94.79C33.2087 95.0863 33.1768 95.403 33.1768 95.7402ZM42.9795 99.6367C42.4326 99.6367 41.9382 99.5479 41.4961 99.3701C41.0586 99.1878 40.6849 98.9349 40.375 98.6113C40.0697 98.2878 39.835 97.9072 39.6709 97.4697C39.5068 97.0322 39.4248 96.5605 39.4248 96.0547V95.7812C39.4248 95.2025 39.5091 94.6784 39.6777 94.209C39.8464 93.7396 40.0811 93.3385 40.3818 93.0059C40.6826 92.6686 41.0381 92.4111 41.4482 92.2334C41.8584 92.0557 42.3027 91.9668 42.7812 91.9668C43.3099 91.9668 43.7725 92.0557 44.1689 92.2334C44.5654 92.4111 44.8936 92.6618 45.1533 92.9854C45.4176 93.3044 45.6136 93.6849 45.7412 94.127C45.8734 94.569 45.9395 95.0566 45.9395 95.5898V96.2939H40.2246V95.1113H44.3125V94.9814C44.3034 94.6852 44.2441 94.4072 44.1348 94.1475C44.0299 93.8877 43.8682 93.6781 43.6494 93.5186C43.4307 93.359 43.139 93.2793 42.7744 93.2793C42.501 93.2793 42.2572 93.3385 42.043 93.457C41.8333 93.571 41.6579 93.7373 41.5166 93.9561C41.3753 94.1748 41.266 94.4391 41.1885 94.749C41.1156 95.0544 41.0791 95.3984 41.0791 95.7812V96.0547C41.0791 96.3783 41.1224 96.679 41.209 96.957C41.3001 97.2305 41.4323 97.4697 41.6055 97.6748C41.7786 97.8799 41.9883 98.0417 42.2344 98.1602C42.4805 98.2741 42.7607 98.3311 43.0752 98.3311C43.4717 98.3311 43.8249 98.2513 44.1348 98.0918C44.4447 97.9323 44.7135 97.7067 44.9414 97.415L45.8096 98.2559C45.6501 98.4883 45.4427 98.7116 45.1875 98.9258C44.9323 99.1354 44.6201 99.3063 44.251 99.4385C43.8864 99.5706 43.4626 99.6367 42.9795 99.6367ZM48.8857 89V99.5H47.2314V89H48.8857ZM53.4795 92.1035L50.2598 95.6719L48.4961 97.4766L48.0654 96.082L49.3984 94.4346L51.4902 92.1035H53.4795ZM51.8457 99.5L49.4463 96.0273L50.4854 94.8721L53.7529 99.5H51.8457ZM58.6953 98.0166V94.4893C58.6953 94.2249 58.6475 93.9971 58.5518 93.8057C58.4561 93.6143 58.3102 93.4661 58.1143 93.3613C57.9229 93.2565 57.6813 93.2041 57.3896 93.2041C57.1208 93.2041 56.8883 93.2497 56.6924 93.3408C56.4964 93.432 56.3438 93.555 56.2344 93.71C56.125 93.8649 56.0703 94.0404 56.0703 94.2363H54.4297C54.4297 93.9447 54.5003 93.6621 54.6416 93.3887C54.7829 93.1152 54.988 92.8714 55.2568 92.6572C55.5257 92.443 55.847 92.2744 56.2207 92.1514C56.5944 92.0283 57.0137 91.9668 57.4785 91.9668C58.0345 91.9668 58.5267 92.0602 58.9551 92.2471C59.388 92.4339 59.7275 92.7165 59.9736 93.0947C60.2243 93.4684 60.3496 93.9378 60.3496 94.5029V97.791C60.3496 98.1283 60.3724 98.4313 60.418 98.7002C60.4681 98.9645 60.5387 99.1947 60.6299 99.3906V99.5H58.9414C58.8639 99.3223 58.8024 99.0967 58.7568 98.8232C58.7158 98.5452 58.6953 98.2764 58.6953 98.0166ZM58.9346 95.002L58.9482 96.0205H57.7656C57.4603 96.0205 57.1914 96.0501 56.959 96.1094C56.7266 96.1641 56.5329 96.2461 56.3779 96.3555C56.223 96.4648 56.1068 96.597 56.0293 96.752C55.9518 96.9069 55.9131 97.0824 55.9131 97.2783C55.9131 97.4743 55.9587 97.6543 56.0498 97.8184C56.141 97.9779 56.2731 98.1032 56.4463 98.1943C56.624 98.2855 56.8382 98.3311 57.0889 98.3311C57.4261 98.3311 57.7201 98.2627 57.9707 98.126C58.2259 97.9847 58.4264 97.8138 58.5723 97.6133C58.7181 97.4082 58.7956 97.2145 58.8047 97.0322L59.3379 97.7637C59.2832 97.9505 59.1898 98.151 59.0576 98.3652C58.9255 98.5794 58.7523 98.7845 58.5381 98.9805C58.3285 99.1719 58.0755 99.3291 57.7793 99.4521C57.4876 99.5752 57.1504 99.6367 56.7676 99.6367C56.2845 99.6367 55.8538 99.541 55.4756 99.3496C55.0973 99.1536 54.8011 98.8916 54.5869 98.5635C54.3727 98.2308 54.2656 97.8548 54.2656 97.4355C54.2656 97.0436 54.3385 96.6973 54.4844 96.3965C54.6348 96.0911 54.8535 95.8359 55.1406 95.6309C55.4323 95.4258 55.7878 95.2708 56.207 95.166C56.6263 95.0566 57.1048 95.002 57.6426 95.002H58.9346ZM63.6992 89V99.5H62.0586V89H63.6992ZM63.4121 95.5283L62.8789 95.5215C62.8835 95.0111 62.9541 94.5394 63.0908 94.1064C63.2321 93.6735 63.4281 93.2975 63.6787 92.9785C63.9339 92.6549 64.2393 92.4066 64.5947 92.2334C64.9502 92.0557 65.3444 91.9668 65.7773 91.9668C66.1419 91.9668 66.4701 92.0169 66.7617 92.1172C67.0579 92.2174 67.3132 92.3792 67.5273 92.6025C67.7415 92.8213 67.9033 93.1084 68.0127 93.4639C68.1266 93.8148 68.1836 94.2432 68.1836 94.749V99.5H66.5293V94.7354C66.5293 94.3799 66.4769 94.0973 66.3721 93.8877C66.2718 93.6781 66.1237 93.5277 65.9277 93.4365C65.7318 93.3408 65.4925 93.293 65.21 93.293C64.9137 93.293 64.6517 93.3522 64.4238 93.4707C64.2005 93.5892 64.0137 93.751 63.8633 93.9561C63.7129 94.1611 63.599 94.3981 63.5215 94.667C63.4486 94.9359 63.4121 95.223 63.4121 95.5283ZM80.0781 93.7031V95.0635H74.7939V93.7031H80.0781ZM75.2178 89.5469V99.5H73.502V89.5469H75.2178ZM81.3975 89.5469V99.5H79.6885V89.5469H81.3975ZM87.4473 98.0166V94.4893C87.4473 94.2249 87.3994 93.9971 87.3037 93.8057C87.208 93.6143 87.0622 93.4661 86.8662 93.3613C86.6748 93.2565 86.4333 93.2041 86.1416 93.2041C85.8727 93.2041 85.6403 93.2497 85.4443 93.3408C85.2484 93.432 85.0957 93.555 84.9863 93.71C84.877 93.8649 84.8223 94.0404 84.8223 94.2363H83.1816C83.1816 93.9447 83.2523 93.6621 83.3936 93.3887C83.5348 93.1152 83.7399 92.8714 84.0088 92.6572C84.2777 92.443 84.599 92.2744 84.9727 92.1514C85.3464 92.0283 85.7656 91.9668 86.2305 91.9668C86.7865 91.9668 87.2786 92.0602 87.707 92.2471C88.14 92.4339 88.4795 92.7165 88.7256 93.0947C88.9762 93.4684 89.1016 93.9378 89.1016 94.5029V97.791C89.1016 98.1283 89.1243 98.4313 89.1699 98.7002C89.2201 98.9645 89.2907 99.1947 89.3818 99.3906V99.5H87.6934C87.6159 99.3223 87.5544 99.0967 87.5088 98.8232C87.4678 98.5452 87.4473 98.2764 87.4473 98.0166ZM87.6865 95.002L87.7002 96.0205H86.5176C86.2122 96.0205 85.9434 96.0501 85.7109 96.1094C85.4785 96.1641 85.2848 96.2461 85.1299 96.3555C84.9749 96.4648 84.8587 96.597 84.7812 96.752C84.7038 96.9069 84.665 97.0824 84.665 97.2783C84.665 97.4743 84.7106 97.6543 84.8018 97.8184C84.8929 97.9779 85.0251 98.1032 85.1982 98.1943C85.376 98.2855 85.5902 98.3311 85.8408 98.3311C86.1781 98.3311 86.472 98.2627 86.7227 98.126C86.9779 97.9847 87.1784 97.8138 87.3242 97.6133C87.4701 97.4082 87.5475 97.2145 87.5566 97.0322L88.0898 97.7637C88.0352 97.9505 87.9417 98.151 87.8096 98.3652C87.6774 98.5794 87.5042 98.7845 87.29 98.9805C87.0804 99.1719 86.8275 99.3291 86.5312 99.4521C86.2396 99.5752 85.9023 99.6367 85.5195 99.6367C85.0365 99.6367 84.6058 99.541 84.2275 99.3496C83.8493 99.1536 83.5531 98.8916 83.3389 98.5635C83.1247 98.2308 83.0176 97.8548 83.0176 97.4355C83.0176 97.0436 83.0905 96.6973 83.2363 96.3965C83.3867 96.0911 83.6055 95.8359 83.8926 95.6309C84.1842 95.4258 84.5397 95.2708 84.959 95.166C85.3783 95.0566 85.8568 95.002 86.3945 95.002H87.6865ZM92.4785 93.5117V99.5H90.8311V92.1035H92.4033L92.4785 93.5117ZM94.7412 92.0557L94.7275 93.5869C94.6273 93.5687 94.5179 93.555 94.3994 93.5459C94.2855 93.5368 94.1715 93.5322 94.0576 93.5322C93.7751 93.5322 93.5267 93.5732 93.3125 93.6553C93.0983 93.7327 92.9183 93.8467 92.7725 93.9971C92.6312 94.1429 92.5218 94.3206 92.4443 94.5303C92.3669 94.7399 92.3213 94.9746 92.3076 95.2344L91.9316 95.2617C91.9316 94.7969 91.9772 94.3662 92.0684 93.9697C92.1595 93.5732 92.2962 93.2246 92.4785 92.9238C92.6654 92.623 92.8978 92.3883 93.1758 92.2197C93.4583 92.0511 93.7842 91.9668 94.1533 91.9668C94.2536 91.9668 94.3607 91.9759 94.4746 91.9941C94.5931 92.0124 94.682 92.0329 94.7412 92.0557ZM97.5371 92.1035V99.5H95.8828V92.1035H97.5371ZM95.7734 90.1621C95.7734 89.9115 95.8555 89.7041 96.0195 89.54C96.1882 89.3714 96.4206 89.2871 96.7168 89.2871C97.0085 89.2871 97.2386 89.3714 97.4072 89.54C97.5758 89.7041 97.6602 89.9115 97.6602 90.1621C97.6602 90.4082 97.5758 90.6133 97.4072 90.7773C97.2386 90.9414 97.0085 91.0234 96.7168 91.0234C96.4206 91.0234 96.1882 90.9414 96.0195 90.7773C95.8555 90.6133 95.7734 90.4082 95.7734 90.1621ZM103.512 98.0166V94.4893C103.512 94.2249 103.464 93.9971 103.368 93.8057C103.272 93.6143 103.127 93.4661 102.931 93.3613C102.739 93.2565 102.498 93.2041 102.206 93.2041C101.937 93.2041 101.705 93.2497 101.509 93.3408C101.313 93.432 101.16 93.555 101.051 93.71C100.941 93.8649 100.887 94.0404 100.887 94.2363H99.2461C99.2461 93.9447 99.3167 93.6621 99.458 93.3887C99.5993 93.1152 99.8044 92.8714 100.073 92.6572C100.342 92.443 100.663 92.2744 101.037 92.1514C101.411 92.0283 101.83 91.9668 102.295 91.9668C102.851 91.9668 103.343 92.0602 103.771 92.2471C104.204 92.4339 104.544 92.7165 104.79 93.0947C105.041 93.4684 105.166 93.9378 105.166 94.5029V97.791C105.166 98.1283 105.189 98.4313 105.234 98.7002C105.285 98.9645 105.355 99.1947 105.446 99.3906V99.5H103.758C103.68 99.3223 103.619 99.0967 103.573 98.8232C103.532 98.5452 103.512 98.2764 103.512 98.0166ZM103.751 95.002L103.765 96.0205H102.582C102.277 96.0205 102.008 96.0501 101.775 96.1094C101.543 96.1641 101.349 96.2461 101.194 96.3555C101.039 96.4648 100.923 96.597 100.846 96.752C100.768 96.9069 100.729 97.0824 100.729 97.2783C100.729 97.4743 100.775 97.6543 100.866 97.8184C100.957 97.9779 101.09 98.1032 101.263 98.1943C101.44 98.2855 101.655 98.3311 101.905 98.3311C102.243 98.3311 102.536 98.2627 102.787 98.126C103.042 97.9847 103.243 97.8138 103.389 97.6133C103.535 97.4082 103.612 97.2145 103.621 97.0322L104.154 97.7637C104.1 97.9505 104.006 98.151 103.874 98.3652C103.742 98.5794 103.569 98.7845 103.354 98.9805C103.145 99.1719 102.892 99.3291 102.596 99.4521C102.304 99.5752 101.967 99.6367 101.584 99.6367C101.101 99.6367 100.67 99.541 100.292 99.3496C99.9137 99.1536 99.6175 98.8916 99.4033 98.5635C99.1891 98.2308 99.082 97.8548 99.082 97.4355C99.082 97.0436 99.1549 96.6973 99.3008 96.3965C99.4512 96.0911 99.6699 95.8359 99.957 95.6309C100.249 95.4258 100.604 95.2708 101.023 95.166C101.443 95.0566 101.921 95.002 102.459 95.002H103.751ZM108.522 93.6826V99.5H106.875V92.1035H108.427L108.522 93.6826ZM108.229 95.5283L107.695 95.5215C107.7 94.9974 107.773 94.5166 107.914 94.0791C108.06 93.6416 108.26 93.2656 108.516 92.9512C108.775 92.6367 109.085 92.3952 109.445 92.2266C109.805 92.0534 110.206 91.9668 110.648 91.9668C111.004 91.9668 111.325 92.0169 111.612 92.1172C111.904 92.2129 112.152 92.3701 112.357 92.5889C112.567 92.8076 112.727 93.0924 112.836 93.4434C112.945 93.7897 113 94.2158 113 94.7217V99.5H111.346V94.7148C111.346 94.3594 111.293 94.0791 111.188 93.874C111.088 93.6644 110.94 93.5163 110.744 93.4297C110.553 93.3385 110.313 93.293 110.026 93.293C109.744 93.293 109.491 93.3522 109.268 93.4707C109.044 93.5892 108.855 93.751 108.7 93.9561C108.55 94.1611 108.434 94.3981 108.352 94.667C108.27 94.9359 108.229 95.223 108.229 95.5283Z" fill="#1E293B"/>
<circle cx="184" cy="94.5" r="8.5" stroke="#E2E8F0"/>
</svg>
