<svg width="208" height="79" viewBox="0 0 208 79" fill="none" xmlns="http://www.w3.org/2000/svg">
<rect x="0.5" y="0.5" width="207" height="78" rx="10.5" fill="white"/>
<rect x="0.5" y="0.5" width="207" height="78" rx="10.5" stroke="#E2E8F0"/>
<path d="M19.8877 20.873L16.9141 29.5H15.1162L18.8623 19.5469H20.0107L19.8877 20.873ZM22.376 29.5L19.3955 20.873L19.2656 19.5469H20.4209L24.1807 29.5H22.376ZM22.2324 25.8086V27.1689H16.8184V25.8086H22.2324ZM26.6553 23.6074V29.5H25.0078V22.1035H26.5596L26.6553 23.6074ZM26.3887 25.5283L25.8281 25.5215C25.8281 25.0111 25.8919 24.5394 26.0195 24.1064C26.1471 23.6735 26.334 23.2975 26.5801 22.9785C26.8262 22.6549 27.1315 22.4066 27.4961 22.2334C27.8652 22.0557 28.2913 21.9668 28.7744 21.9668C29.1117 21.9668 29.4193 22.0169 29.6973 22.1172C29.9798 22.2129 30.2236 22.3656 30.4287 22.5752C30.6383 22.7848 30.7979 23.0537 30.9072 23.3818C31.0212 23.71 31.0781 24.1064 31.0781 24.5713V29.5H29.4307V24.7148C29.4307 24.3548 29.376 24.0723 29.2666 23.8672C29.1618 23.6621 29.0091 23.5163 28.8086 23.4297C28.6126 23.3385 28.3779 23.293 28.1045 23.293C27.7946 23.293 27.5303 23.3522 27.3115 23.4707C27.0973 23.5892 26.9219 23.751 26.7852 23.9561C26.6484 24.1611 26.5482 24.3981 26.4844 24.667C26.4206 24.9359 26.3887 25.223 26.3887 25.5283ZM30.9756 25.0908L30.2031 25.2617C30.2031 24.8151 30.2646 24.3936 30.3877 23.9971C30.5153 23.596 30.6999 23.2451 30.9414 22.9443C31.1875 22.639 31.4906 22.3997 31.8506 22.2266C32.2106 22.0534 32.623 21.9668 33.0879 21.9668C33.4661 21.9668 33.8034 22.0192 34.0996 22.124C34.4004 22.2243 34.6556 22.3838 34.8652 22.6025C35.0749 22.8213 35.2344 23.1061 35.3438 23.457C35.4531 23.8034 35.5078 24.2227 35.5078 24.7148V29.5H33.8535V24.708C33.8535 24.3343 33.7988 24.0449 33.6895 23.8398C33.5846 23.6348 33.4342 23.4935 33.2383 23.416C33.0423 23.334 32.8076 23.293 32.5342 23.293C32.279 23.293 32.0534 23.3408 31.8574 23.4365C31.666 23.5277 31.5042 23.6576 31.3721 23.8262C31.2399 23.9902 31.1396 24.1794 31.0713 24.3936C31.0075 24.6077 30.9756 24.8402 30.9756 25.0908ZM41.373 28.0166V24.4893C41.373 24.2249 41.3252 23.9971 41.2295 23.8057C41.1338 23.6143 40.988 23.4661 40.792 23.3613C40.6006 23.2565 40.359 23.2041 40.0674 23.2041C39.7985 23.2041 39.5661 23.2497 39.3701 23.3408C39.1742 23.432 39.0215 23.555 38.9121 23.71C38.8027 23.8649 38.748 24.0404 38.748 24.2363H37.1074C37.1074 23.9447 37.1781 23.6621 37.3193 23.3887C37.4606 23.1152 37.6657 22.8714 37.9346 22.6572C38.2035 22.443 38.5247 22.2744 38.8984 22.1514C39.2721 22.0283 39.6914 21.9668 40.1562 21.9668C40.7122 21.9668 41.2044 22.0602 41.6328 22.2471C42.0658 22.4339 42.4053 22.7165 42.6514 23.0947C42.902 23.4684 43.0273 23.9378 43.0273 24.5029V27.791C43.0273 28.1283 43.0501 28.4313 43.0957 28.7002C43.1458 28.9645 43.2165 29.1947 43.3076 29.3906V29.5H41.6191C41.5417 29.3223 41.4801 29.0967 41.4346 28.8232C41.3936 28.5452 41.373 28.2764 41.373 28.0166ZM41.6123 25.002L41.626 26.0205H40.4434C40.138 26.0205 39.8691 26.0501 39.6367 26.1094C39.4043 26.1641 39.2106 26.2461 39.0557 26.3555C38.9007 26.4648 38.7845 26.597 38.707 26.752C38.6296 26.9069 38.5908 27.0824 38.5908 27.2783C38.5908 27.4743 38.6364 27.6543 38.7275 27.8184C38.8187 27.9779 38.9508 28.1032 39.124 28.1943C39.3018 28.2855 39.516 28.3311 39.7666 28.3311C40.1038 28.3311 40.3978 28.2627 40.6484 28.126C40.9036 27.9847 41.1042 27.8138 41.25 27.6133C41.3958 27.4082 41.4733 27.2145 41.4824 27.0322L42.0156 27.7637C41.9609 27.9505 41.8675 28.151 41.7354 28.3652C41.6032 28.5794 41.43 28.7845 41.2158 28.9805C41.0062 29.1719 40.7533 29.3291 40.457 29.4521C40.1654 29.5752 39.8281 29.6367 39.4453 29.6367C38.9622 29.6367 38.5316 29.541 38.1533 29.3496C37.7751 29.1536 37.4788 28.8916 37.2646 28.5635C37.0505 28.2308 36.9434 27.8548 36.9434 27.4355C36.9434 27.0436 37.0163 26.6973 37.1621 26.3965C37.3125 26.0911 37.5312 25.8359 37.8184 25.6309C38.11 25.4258 38.4655 25.2708 38.8848 25.166C39.304 25.0566 39.7826 25.002 40.3203 25.002H41.6123ZM46.5137 19V29.5H44.8594V19H46.5137ZM52.4883 28.0166V24.4893C52.4883 24.2249 52.4404 23.9971 52.3447 23.8057C52.249 23.6143 52.1032 23.4661 51.9072 23.3613C51.7158 23.2565 51.4743 23.2041 51.1826 23.2041C50.9137 23.2041 50.6813 23.2497 50.4854 23.3408C50.2894 23.432 50.1367 23.555 50.0273 23.71C49.918 23.8649 49.8633 24.0404 49.8633 24.2363H48.2227C48.2227 23.9447 48.2933 23.6621 48.4346 23.3887C48.5758 23.1152 48.7809 22.8714 49.0498 22.6572C49.3187 22.443 49.64 22.2744 50.0137 22.1514C50.3874 22.0283 50.8066 21.9668 51.2715 21.9668C51.8275 21.9668 52.3197 22.0602 52.748 22.2471C53.181 22.4339 53.5205 22.7165 53.7666 23.0947C54.0173 23.4684 54.1426 23.9378 54.1426 24.5029V27.791C54.1426 28.1283 54.1654 28.4313 54.2109 28.7002C54.2611 28.9645 54.3317 29.1947 54.4229 29.3906V29.5H52.7344C52.6569 29.3223 52.5954 29.0967 52.5498 28.8232C52.5088 28.5452 52.4883 28.2764 52.4883 28.0166ZM52.7275 25.002L52.7412 26.0205H51.5586C51.2533 26.0205 50.9844 26.0501 50.752 26.1094C50.5195 26.1641 50.3258 26.2461 50.1709 26.3555C50.016 26.4648 49.8997 26.597 49.8223 26.752C49.7448 26.9069 49.7061 27.0824 49.7061 27.2783C49.7061 27.4743 49.7516 27.6543 49.8428 27.8184C49.9339 27.9779 50.0661 28.1032 50.2393 28.1943C50.417 28.2855 50.6312 28.3311 50.8818 28.3311C51.2191 28.3311 51.513 28.2627 51.7637 28.126C52.0189 27.9847 52.2194 27.8138 52.3652 27.6133C52.5111 27.4082 52.5885 27.2145 52.5977 27.0322L53.1309 27.7637C53.0762 27.9505 52.9827 28.151 52.8506 28.3652C52.7184 28.5794 52.5452 28.7845 52.3311 28.9805C52.1214 29.1719 51.8685 29.3291 51.5723 29.4521C51.2806 29.5752 50.9434 29.6367 50.5605 29.6367C50.0775 29.6367 49.6468 29.541 49.2686 29.3496C48.8903 29.1536 48.5941 28.8916 48.3799 28.5635C48.1657 28.2308 48.0586 27.8548 48.0586 27.4355C48.0586 27.0436 48.1315 26.6973 48.2773 26.3965C48.4277 26.0911 48.6465 25.8359 48.9336 25.6309C49.2253 25.4258 49.5807 25.2708 50 25.166C50.4193 25.0566 50.8978 25.002 51.4355 25.002H52.7275ZM57.499 23.6826V29.5H55.8516V22.1035H57.4033L57.499 23.6826ZM57.2051 25.5283L56.6719 25.5215C56.6764 24.9974 56.7493 24.5166 56.8906 24.0791C57.0365 23.6416 57.237 23.2656 57.4922 22.9512C57.752 22.6367 58.0618 22.3952 58.4219 22.2266C58.7819 22.0534 59.1829 21.9668 59.625 21.9668C59.9805 21.9668 60.3018 22.0169 60.5889 22.1172C60.8805 22.2129 61.1289 22.3701 61.334 22.5889C61.5436 22.8076 61.7031 23.0924 61.8125 23.4434C61.9219 23.7897 61.9766 24.2158 61.9766 24.7217V29.5H60.3223V24.7148C60.3223 24.3594 60.2699 24.0791 60.165 23.874C60.0648 23.6644 59.9167 23.5163 59.7207 23.4297C59.5293 23.3385 59.29 23.293 59.0029 23.293C58.7204 23.293 58.4674 23.3522 58.2441 23.4707C58.0208 23.5892 57.8317 23.751 57.6768 23.9561C57.5264 24.1611 57.4102 24.3981 57.3281 24.667C57.2461 24.9359 57.2051 25.223 57.2051 25.5283ZM73.8848 23.7031V25.0635H68.6006V23.7031H73.8848ZM69.0244 19.5469V29.5H67.3086V19.5469H69.0244ZM75.2041 19.5469V29.5H73.4951V19.5469H75.2041ZM81.2539 28.0166V24.4893C81.2539 24.2249 81.2061 23.9971 81.1104 23.8057C81.0146 23.6143 80.8688 23.4661 80.6729 23.3613C80.4814 23.2565 80.2399 23.2041 79.9482 23.2041C79.6794 23.2041 79.4469 23.2497 79.251 23.3408C79.055 23.432 78.9023 23.555 78.793 23.71C78.6836 23.8649 78.6289 24.0404 78.6289 24.2363H76.9883C76.9883 23.9447 77.0589 23.6621 77.2002 23.3887C77.3415 23.1152 77.5465 22.8714 77.8154 22.6572C78.0843 22.443 78.4056 22.2744 78.7793 22.1514C79.153 22.0283 79.5723 21.9668 80.0371 21.9668C80.5931 21.9668 81.0853 22.0602 81.5137 22.2471C81.9466 22.4339 82.2861 22.7165 82.5322 23.0947C82.7829 23.4684 82.9082 23.9378 82.9082 24.5029V27.791C82.9082 28.1283 82.931 28.4313 82.9766 28.7002C83.0267 28.9645 83.0973 29.1947 83.1885 29.3906V29.5H81.5C81.4225 29.3223 81.361 29.0967 81.3154 28.8232C81.2744 28.5452 81.2539 28.2764 81.2539 28.0166ZM81.4932 25.002L81.5068 26.0205H80.3242C80.0189 26.0205 79.75 26.0501 79.5176 26.1094C79.2852 26.1641 79.0915 26.2461 78.9365 26.3555C78.7816 26.4648 78.6654 26.597 78.5879 26.752C78.5104 26.9069 78.4717 27.0824 78.4717 27.2783C78.4717 27.4743 78.5173 27.6543 78.6084 27.8184C78.6995 27.9779 78.8317 28.1032 79.0049 28.1943C79.1826 28.2855 79.3968 28.3311 79.6475 28.3311C79.9847 28.3311 80.2786 28.2627 80.5293 28.126C80.7845 27.9847 80.985 27.8138 81.1309 27.6133C81.2767 27.4082 81.3542 27.2145 81.3633 27.0322L81.8965 27.7637C81.8418 27.9505 81.7484 28.151 81.6162 28.3652C81.484 28.5794 81.3109 28.7845 81.0967 28.9805C80.887 29.1719 80.6341 29.3291 80.3379 29.4521C80.0462 29.5752 79.709 29.6367 79.3262 29.6367C78.8431 29.6367 78.4124 29.541 78.0342 29.3496C77.6559 29.1536 77.3597 28.8916 77.1455 28.5635C76.9313 28.2308 76.8242 27.8548 76.8242 27.4355C76.8242 27.0436 76.8971 26.6973 77.043 26.3965C77.1934 26.0911 77.4121 25.8359 77.6992 25.6309C77.9909 25.4258 78.3464 25.2708 78.7656 25.166C79.1849 25.0566 79.6634 25.002 80.2012 25.002H81.4932ZM86.2852 23.5117V29.5H84.6377V22.1035H86.21L86.2852 23.5117ZM88.5479 22.0557L88.5342 23.5869C88.4339 23.5687 88.3245 23.555 88.2061 23.5459C88.0921 23.5368 87.9782 23.5322 87.8643 23.5322C87.5817 23.5322 87.3333 23.5732 87.1191 23.6553C86.9049 23.7327 86.7249 23.8467 86.5791 23.9971C86.4378 24.1429 86.3285 24.3206 86.251 24.5303C86.1735 24.7399 86.1279 24.9746 86.1143 25.2344L85.7383 25.2617C85.7383 24.7969 85.7839 24.3662 85.875 23.9697C85.9661 23.5732 86.1029 23.2246 86.2852 22.9238C86.472 22.623 86.7044 22.3883 86.9824 22.2197C87.265 22.0511 87.5908 21.9668 87.96 21.9668C88.0602 21.9668 88.1673 21.9759 88.2812 21.9941C88.3997 22.0124 88.4886 22.0329 88.5479 22.0557ZM91.3438 22.1035V29.5H89.6895V22.1035H91.3438ZM89.5801 20.1621C89.5801 19.9115 89.6621 19.7041 89.8262 19.54C89.9948 19.3714 90.2272 19.2871 90.5234 19.2871C90.8151 19.2871 91.0452 19.3714 91.2139 19.54C91.3825 19.7041 91.4668 19.9115 91.4668 20.1621C91.4668 20.4082 91.3825 20.6133 91.2139 20.7773C91.0452 20.9414 90.8151 21.0234 90.5234 21.0234C90.2272 21.0234 89.9948 20.9414 89.8262 20.7773C89.6621 20.6133 89.5801 20.4082 89.5801 20.1621ZM97.3184 28.0166V24.4893C97.3184 24.2249 97.2705 23.9971 97.1748 23.8057C97.0791 23.6143 96.9333 23.4661 96.7373 23.3613C96.5459 23.2565 96.3044 23.2041 96.0127 23.2041C95.7438 23.2041 95.5114 23.2497 95.3154 23.3408C95.1195 23.432 94.9668 23.555 94.8574 23.71C94.748 23.8649 94.6934 24.0404 94.6934 24.2363H93.0527C93.0527 23.9447 93.1234 23.6621 93.2646 23.3887C93.4059 23.1152 93.611 22.8714 93.8799 22.6572C94.1488 22.443 94.4701 22.2744 94.8438 22.1514C95.2174 22.0283 95.6367 21.9668 96.1016 21.9668C96.6576 21.9668 97.1497 22.0602 97.5781 22.2471C98.0111 22.4339 98.3506 22.7165 98.5967 23.0947C98.8473 23.4684 98.9727 23.9378 98.9727 24.5029V27.791C98.9727 28.1283 98.9954 28.4313 99.041 28.7002C99.0911 28.9645 99.1618 29.1947 99.2529 29.3906V29.5H97.5645C97.487 29.3223 97.4255 29.0967 97.3799 28.8232C97.3389 28.5452 97.3184 28.2764 97.3184 28.0166ZM97.5576 25.002L97.5713 26.0205H96.3887C96.0833 26.0205 95.8145 26.0501 95.582 26.1094C95.3496 26.1641 95.1559 26.2461 95.001 26.3555C94.846 26.4648 94.7298 26.597 94.6523 26.752C94.5749 26.9069 94.5361 27.0824 94.5361 27.2783C94.5361 27.4743 94.5817 27.6543 94.6729 27.8184C94.764 27.9779 94.8962 28.1032 95.0693 28.1943C95.2471 28.2855 95.4613 28.3311 95.7119 28.3311C96.0492 28.3311 96.3431 28.2627 96.5938 28.126C96.849 27.9847 97.0495 27.8138 97.1953 27.6133C97.3411 27.4082 97.4186 27.2145 97.4277 27.0322L97.9609 27.7637C97.9062 27.9505 97.8128 28.151 97.6807 28.3652C97.5485 28.5794 97.3753 28.7845 97.1611 28.9805C96.9515 29.1719 96.6986 29.3291 96.4023 29.4521C96.1107 29.5752 95.7734 29.6367 95.3906 29.6367C94.9076 29.6367 94.4769 29.541 94.0986 29.3496C93.7204 29.1536 93.4242 28.8916 93.21 28.5635C92.9958 28.2308 92.8887 27.8548 92.8887 27.4355C92.8887 27.0436 92.9616 26.6973 93.1074 26.3965C93.2578 26.0911 93.4766 25.8359 93.7637 25.6309C94.0553 25.4258 94.4108 25.2708 94.8301 25.166C95.2493 25.0566 95.7279 25.002 96.2656 25.002H97.5576ZM102.329 23.6826V29.5H100.682V22.1035H102.233L102.329 23.6826ZM102.035 25.5283L101.502 25.5215C101.507 24.9974 101.579 24.5166 101.721 24.0791C101.867 23.6416 102.067 23.2656 102.322 22.9512C102.582 22.6367 102.892 22.3952 103.252 22.2266C103.612 22.0534 104.013 21.9668 104.455 21.9668C104.811 21.9668 105.132 22.0169 105.419 22.1172C105.711 22.2129 105.959 22.3701 106.164 22.5889C106.374 22.8076 106.533 23.0924 106.643 23.4434C106.752 23.7897 106.807 24.2158 106.807 24.7217V29.5H105.152V24.7148C105.152 24.3594 105.1 24.0791 104.995 23.874C104.895 23.6644 104.747 23.5163 104.551 23.4297C104.359 23.3385 104.12 23.293 103.833 23.293C103.55 23.293 103.298 23.3522 103.074 23.4707C102.851 23.5892 102.662 23.751 102.507 23.9561C102.356 24.1611 102.24 24.3981 102.158 24.667C102.076 24.9359 102.035 25.223 102.035 25.5283Z" fill="#1E293B"/>
<path d="M160.366 19.5195V29.5H158.555V21.6318L156.155 22.4248V20.9619L160.161 19.5195H160.366ZM165.507 24.9199L164.064 24.5713L164.618 19.5469H170.094V21.0439H166.115L165.855 23.3682C165.997 23.2816 166.202 23.195 166.471 23.1084C166.744 23.0173 167.052 22.9717 167.394 22.9717C167.868 22.9717 168.291 23.0492 168.665 23.2041C169.039 23.3545 169.355 23.5732 169.615 23.8604C169.88 24.1475 170.078 24.4984 170.21 24.9131C170.347 25.3232 170.415 25.7881 170.415 26.3076C170.415 26.7633 170.347 27.1917 170.21 27.5928C170.078 27.9893 169.875 28.3424 169.602 28.6523C169.328 28.9577 168.984 29.1992 168.569 29.377C168.155 29.5501 167.667 29.6367 167.106 29.6367C166.683 29.6367 166.275 29.5752 165.883 29.4521C165.495 29.3245 165.147 29.14 164.837 28.8984C164.527 28.6523 164.279 28.3516 164.092 27.9961C163.91 27.6406 163.809 27.2327 163.791 26.7725H165.575C165.607 27.0778 165.689 27.3376 165.821 27.5518C165.953 27.766 166.127 27.93 166.341 28.0439C166.56 28.1579 166.812 28.2148 167.1 28.2148C167.359 28.2148 167.583 28.167 167.77 28.0713C167.961 27.971 168.118 27.832 168.241 27.6543C168.364 27.4766 168.455 27.2669 168.515 27.0254C168.574 26.7839 168.604 26.5195 168.604 26.2324C168.604 25.9544 168.569 25.7015 168.501 25.4736C168.433 25.2412 168.328 25.0407 168.187 24.8721C168.045 24.7035 167.868 24.5736 167.653 24.4824C167.444 24.3913 167.198 24.3457 166.915 24.3457C166.537 24.3457 166.245 24.4027 166.04 24.5166C165.84 24.6305 165.662 24.765 165.507 24.9199ZM176.362 19.5469L172.213 30.3545H171.126L175.282 19.5469H176.362ZM179.452 23.9014H180.354C180.797 23.9014 181.161 23.8285 181.448 23.6826C181.74 23.5322 181.956 23.3294 182.098 23.0742C182.243 22.8145 182.316 22.5228 182.316 22.1992C182.316 21.8164 182.253 21.4951 182.125 21.2354C181.997 20.9756 181.806 20.7796 181.551 20.6475C181.296 20.5153 180.972 20.4492 180.58 20.4492C180.225 20.4492 179.91 20.5199 179.637 20.6611C179.368 20.7979 179.156 20.9938 179.001 21.249C178.851 21.5042 178.775 21.805 178.775 22.1514H177.511C177.511 21.6455 177.638 21.1852 177.894 20.7705C178.149 20.3558 178.507 20.0254 178.967 19.7793C179.432 19.5332 179.969 19.4102 180.58 19.4102C181.182 19.4102 181.708 19.5173 182.159 19.7314C182.61 19.9411 182.961 20.2555 183.212 20.6748C183.463 21.0895 183.588 21.6068 183.588 22.2266C183.588 22.4772 183.529 22.7461 183.41 23.0332C183.296 23.3158 183.116 23.5801 182.87 23.8262C182.629 24.0723 182.314 24.2751 181.927 24.4346C181.539 24.5895 181.075 24.667 180.532 24.667H179.452V23.9014ZM179.452 24.9404V24.1816H180.532C181.166 24.1816 181.69 24.2568 182.104 24.4072C182.519 24.5576 182.845 24.7581 183.082 25.0088C183.324 25.2594 183.492 25.5352 183.588 25.8359C183.688 26.1322 183.738 26.4284 183.738 26.7246C183.738 27.1895 183.659 27.6019 183.499 27.9619C183.344 28.3219 183.123 28.6273 182.836 28.8779C182.553 29.1286 182.221 29.3177 181.838 29.4453C181.455 29.5729 181.038 29.6367 180.587 29.6367C180.154 29.6367 179.746 29.5752 179.363 29.4521C178.985 29.3291 178.65 29.1514 178.358 28.9189C178.067 28.682 177.839 28.3926 177.675 28.0508C177.511 27.7044 177.429 27.3102 177.429 26.8682H178.693C178.693 27.2145 178.769 27.5176 178.919 27.7773C179.074 28.0371 179.293 28.2399 179.575 28.3857C179.862 28.527 180.2 28.5977 180.587 28.5977C180.974 28.5977 181.307 28.5316 181.585 28.3994C181.868 28.2627 182.084 28.0576 182.234 27.7842C182.389 27.5107 182.467 27.1667 182.467 26.752C182.467 26.3372 182.38 25.9977 182.207 25.7334C182.034 25.4645 181.788 25.2663 181.469 25.1387C181.154 25.0065 180.783 24.9404 180.354 24.9404H179.452ZM191.729 23.7305V25.248C191.729 26.0638 191.657 26.752 191.511 27.3125C191.365 27.873 191.155 28.3242 190.882 28.666C190.608 29.0078 190.278 29.2562 189.891 29.4111C189.508 29.5615 189.075 29.6367 188.592 29.6367C188.209 29.6367 187.856 29.5889 187.532 29.4932C187.209 29.3975 186.917 29.2448 186.657 29.0352C186.402 28.821 186.183 28.543 186.001 28.2012C185.819 27.8594 185.68 27.4447 185.584 26.957C185.488 26.4694 185.44 25.8997 185.44 25.248V23.7305C185.44 22.9147 185.513 22.2311 185.659 21.6797C185.81 21.1283 186.021 20.6862 186.295 20.3535C186.568 20.0163 186.896 19.7747 187.279 19.6289C187.667 19.4831 188.1 19.4102 188.578 19.4102C188.965 19.4102 189.321 19.458 189.645 19.5537C189.973 19.6449 190.264 19.793 190.52 19.998C190.775 20.1986 190.991 20.4674 191.169 20.8047C191.351 21.1374 191.49 21.5452 191.586 22.0283C191.682 22.5114 191.729 23.0788 191.729 23.7305ZM190.458 25.4531V23.5186C190.458 23.0719 190.431 22.68 190.376 22.3428C190.326 22.001 190.251 21.7093 190.15 21.4678C190.05 21.2262 189.923 21.0303 189.768 20.8799C189.617 20.7295 189.442 20.6201 189.241 20.5518C189.045 20.4788 188.824 20.4424 188.578 20.4424C188.277 20.4424 188.011 20.4993 187.778 20.6133C187.546 20.7227 187.35 20.8981 187.19 21.1396C187.035 21.3812 186.917 21.6979 186.835 22.0898C186.753 22.4818 186.712 22.958 186.712 23.5186V25.4531C186.712 25.8997 186.737 26.2939 186.787 26.6357C186.842 26.9775 186.922 27.2738 187.026 27.5244C187.131 27.7705 187.259 27.9733 187.409 28.1328C187.56 28.2923 187.733 28.4108 187.929 28.4883C188.129 28.5612 188.35 28.5977 188.592 28.5977C188.902 28.5977 189.173 28.5384 189.405 28.4199C189.638 28.3014 189.831 28.1169 189.986 27.8662C190.146 27.611 190.264 27.2852 190.342 26.8887C190.419 26.4876 190.458 26.0091 190.458 25.4531Z" fill="#1E293B"/>
<rect x="15" y="53.4286" width="163" height="5.14286" rx="2.57143" fill="#F1F5F9"/>
<rect x="15" y="53.4286" width="83.8738" height="5.14286" rx="2.57143" fill="#E29123"/>
<g filter="url(#filter0_d_228_504)">
<ellipse cx="96.5" cy="56" rx="5.53883" ry="6" fill="#E29123"/>
</g>
<path d="M182.718 53.4873V52.9609C182.718 52.5827 182.8 52.2386 182.964 51.9287C183.128 51.6188 183.363 51.3704 183.668 51.1836C183.973 50.9967 184.336 50.9033 184.755 50.9033C185.183 50.9033 185.548 50.9967 185.849 51.1836C186.154 51.3704 186.389 51.6188 186.553 51.9287C186.717 52.2386 186.799 52.5827 186.799 52.9609V53.4873C186.799 53.8564 186.717 54.196 186.553 54.5059C186.393 54.8158 186.161 55.0641 185.855 55.251C185.555 55.4378 185.192 55.5312 184.769 55.5312C184.345 55.5312 183.978 55.4378 183.668 55.251C183.363 55.0641 183.128 54.8158 182.964 54.5059C182.8 54.196 182.718 53.8564 182.718 53.4873ZM183.668 52.9609V53.4873C183.668 53.6969 183.707 53.8952 183.784 54.082C183.866 54.2689 183.989 54.4215 184.153 54.54C184.317 54.654 184.522 54.7109 184.769 54.7109C185.015 54.7109 185.217 54.654 185.377 54.54C185.536 54.4215 185.655 54.2689 185.732 54.082C185.81 53.8952 185.849 53.6969 185.849 53.4873V52.9609C185.849 52.7467 185.808 52.5462 185.726 52.3594C185.648 52.168 185.527 52.0153 185.363 51.9014C185.204 51.7829 185.001 51.7236 184.755 51.7236C184.513 51.7236 184.311 51.7829 184.146 51.9014C183.987 52.0153 183.866 52.168 183.784 52.3594C183.707 52.5462 183.668 52.7467 183.668 52.9609ZM187.564 59.0928V58.5596C187.564 58.1859 187.646 57.8441 187.811 57.5342C187.975 57.2243 188.209 56.9759 188.515 56.7891C188.82 56.6022 189.182 56.5088 189.602 56.5088C190.03 56.5088 190.395 56.6022 190.695 56.7891C191.001 56.9759 191.235 57.2243 191.399 57.5342C191.563 57.8441 191.646 58.1859 191.646 58.5596V59.0928C191.646 59.4665 191.563 59.8083 191.399 60.1182C191.24 60.4281 191.007 60.6764 190.702 60.8633C190.401 61.0501 190.039 61.1436 189.615 61.1436C189.191 61.1436 188.827 61.0501 188.521 60.8633C188.216 60.6764 187.979 60.4281 187.811 60.1182C187.646 59.8083 187.564 59.4665 187.564 59.0928ZM188.515 58.5596V59.0928C188.515 59.3024 188.553 59.5029 188.631 59.6943C188.713 59.8812 188.836 60.0339 189 60.1523C189.164 60.2663 189.369 60.3232 189.615 60.3232C189.861 60.3232 190.064 60.2663 190.224 60.1523C190.388 60.0339 190.508 59.8812 190.586 59.6943C190.663 59.5075 190.702 59.307 190.702 59.0928V58.5596C190.702 58.3454 190.661 58.1449 190.579 57.958C190.502 57.7712 190.381 57.6208 190.217 57.5068C190.057 57.3883 189.852 57.3291 189.602 57.3291C189.36 57.3291 189.157 57.3883 188.993 57.5068C188.834 57.6208 188.713 57.7712 188.631 57.958C188.553 58.1449 188.515 58.3454 188.515 58.5596ZM189.916 52.4619L185.056 60.2412L184.345 59.79L189.205 52.0107L189.916 52.4619Z" fill="#1E293B"/>
<defs>
<filter id="filter0_d_228_504" x="86.9612" y="48" width="19.0776" height="20" filterUnits="userSpaceOnUse" color-interpolation-filters="sRGB">
<feFlood flood-opacity="0" result="BackgroundImageFix"/>
<feColorMatrix in="SourceAlpha" type="matrix" values="0 0 0 0 0 0 0 0 0 0 0 0 0 0 0 0 0 0 127 0" result="hardAlpha"/>
<feOffset dy="2"/>
<feGaussianBlur stdDeviation="2"/>
<feComposite in2="hardAlpha" operator="out"/>
<feColorMatrix type="matrix" values="0 0 0 0 0 0 0 0 0 0 0 0 0 0 0 0 0 0 0.25 0"/>
<feBlend mode="normal" in2="BackgroundImageFix" result="effect1_dropShadow_228_504"/>
<feBlend mode="normal" in="SourceGraphic" in2="effect1_dropShadow_228_504" result="shape"/>
</filter>
</defs>
</svg>
